<svg width="547" height="183" viewBox="0 0 547 183" fill="none" xmlns="http://www.w3.org/2000/svg">
<path d="M111.211 83V67.0908L141.598 41.9545C143.613 40.2841 145.336 38.7196 146.768 37.2614C148.226 35.7765 149.34 34.2518 150.109 32.6875C150.904 31.123 151.302 29.3864 151.302 27.4772C151.302 25.3826 150.851 23.5928 149.95 22.1079C149.075 20.623 147.855 19.4829 146.291 18.6875C144.726 17.8655 142.923 17.4545 140.882 17.4545C138.84 17.4545 137.037 17.8655 135.473 18.6875C133.935 19.5094 132.742 20.7158 131.893 22.3068C131.045 23.8977 130.62 25.8333 130.62 28.1135H109.62C109.62 22.3864 110.906 17.4545 113.478 13.3181C116.05 9.18176 119.683 6 124.376 3.77271C129.069 1.54541 134.571 0.431763 140.882 0.431763C147.404 0.431763 153.052 1.47913 157.825 3.57385C162.624 5.64197 166.323 8.55872 168.922 12.3239C171.547 16.089 172.859 20.5038 172.859 25.5681C172.859 28.6969 172.209 31.8125 170.91 34.9147C169.611 37.9905 167.278 41.3977 163.91 45.1364C160.543 48.875 155.757 53.3295 149.552 58.5L141.916 64.8635V65.3408H173.734V83H111.211Z" fill="white"/>
<path fill-rule="evenodd" clip-rule="evenodd" d="M228.055 85.2272C220.657 85.2007 214.267 83.4905 208.884 80.0966C203.502 76.7026 199.352 71.8105 196.435 65.4204C193.519 59.0303 192.074 51.3674 192.1 42.4318C192.127 33.4696 193.585 25.8597 196.475 19.6022C199.392 13.3446 203.528 8.58521 208.884 5.32385C214.267 2.0625 220.657 0.431763 228.055 0.431763C235.453 0.431763 241.843 2.07568 247.225 5.36353C252.608 8.625 256.757 13.3844 259.674 19.642C262.591 25.8995 264.036 33.4962 264.009 42.4318C264.009 51.4204 262.551 59.1097 259.634 65.5C256.718 71.8901 252.568 76.7821 247.185 80.176C241.829 83.5435 235.453 85.2272 228.055 85.2272ZM228.055 67.25C231.873 67.25 235.002 65.2614 237.441 61.2841C239.907 57.2803 241.127 50.9962 241.1 42.4318C241.1 36.837 240.543 32.2632 239.43 28.7102C238.316 25.1571 236.778 22.5321 234.816 20.8352C232.854 19.1117 230.6 18.25 228.055 18.25C224.237 18.25 221.121 20.1855 218.708 24.0568C216.295 27.928 215.062 34.053 215.009 42.4318C214.983 48.1326 215.526 52.8257 216.64 56.5114C217.754 60.1704 219.292 62.875 221.254 64.625C223.242 66.375 225.509 67.25 228.055 67.25Z" fill="white"/>
<path d="M283.35 67.0908V83H345.873V65.3408H314.055V64.8635L321.691 58.5C327.895 53.3295 332.681 48.875 336.049 45.1364C339.416 41.3977 341.75 37.9905 343.049 34.9147C344.348 31.8125 344.998 28.6969 344.998 25.5681C344.998 20.5038 343.685 16.089 341.06 12.3239C338.462 8.55872 334.763 5.64197 329.964 3.57385C325.191 1.47913 319.543 0.431763 313.02 0.431763C306.71 0.431763 301.208 1.54541 296.515 3.77271C291.822 6 288.189 9.18176 285.617 13.3181C283.045 17.4545 281.759 22.3864 281.759 28.1135H302.759C302.759 25.8333 303.183 23.8977 304.032 22.3068C304.88 20.7158 306.073 19.5094 307.611 18.6875C309.176 17.8655 310.979 17.4545 313.02 17.4545C315.062 17.4545 316.865 17.8655 318.43 18.6875C319.994 19.4829 321.214 20.623 322.089 22.1079C322.99 23.5928 323.441 25.3826 323.441 27.4772C323.441 29.3864 323.043 31.123 322.248 32.6875C321.479 34.2518 320.365 35.7765 318.907 37.2614C317.475 38.7196 315.752 40.2841 313.736 41.9545L283.35 67.0908Z" fill="white"/>
<path fill-rule="evenodd" clip-rule="evenodd" d="M362.171 70.2727V53.0908L394.944 1.54541H422.944V53.0908H432.33V70.2727H422.944V83H401.784V70.2727H362.171ZM401.625 24.4545H402.262V53.0908H383.966V52.4545L401.625 24.4545Z" fill="white"/>
<path fill-rule="evenodd" clip-rule="evenodd" d="M66.6843 142L66.412 138.75C66.0514 134.444 65.017 130.528 63.2547 127.05C61.5136 123.614 59.1956 120.69 56.3008 118.311C53.4271 115.929 50.109 114.14 46.3814 112.928C42.6494 111.715 38.6132 111.125 34.2975 111.125C28.0944 111.125 22.391 112.489 17.2512 115.264C12.0531 118.05 7.94411 122.169 4.93323 127.528C1.87019 132.959 0.422485 139.498 0.422485 147C0.422485 154.455 1.83688 160.971 4.82389 166.412L4.82863 166.421C7.79697 171.787 11.8755 175.921 17.0542 178.731L17.0592 178.733C22.2095 181.515 27.9793 182.875 34.2975 182.875C39.2868 182.875 43.7983 182.11 47.7695 180.499C51.6248 178.934 54.9385 176.836 57.6501 174.171C60.2954 171.571 62.3782 168.701 63.8562 165.558L63.8598 165.55C65.3034 162.457 66.174 159.346 66.4137 156.23L66.6604 153.023L43.2206 152.857L42.8313 155.426C42.6701 156.49 42.3658 157.388 41.9469 158.154L41.9421 158.163L41.9373 158.171C41.5363 158.916 41.0243 159.538 40.3922 160.058C39.7749 160.565 39.0148 160.987 38.0716 161.299C37.1458 161.584 36.0237 161.75 34.6725 161.75C32.345 161.75 30.5375 161.214 29.1087 160.279C27.7013 159.338 26.5214 157.888 25.6462 155.732C24.7869 153.542 24.2975 150.665 24.2975 147C24.2975 143.558 24.7723 140.77 25.624 138.558C26.4854 136.374 27.6728 134.854 29.1192 133.827C30.5481 132.828 32.3855 132.25 34.7975 132.25C36.1791 132.25 37.3113 132.449 38.2374 132.787L38.2573 132.794L38.2772 132.801C39.2254 133.132 39.9603 133.587 40.5386 134.139L40.5638 134.163L40.5895 134.186C41.2094 134.751 41.6941 135.425 42.0501 136.236L42.0589 136.256L42.068 136.276C42.451 137.116 42.7092 138.099 42.8084 139.256L43.0436 142H66.6843ZM45.4537 115.781C48.8496 116.885 51.8287 118.5 54.3912 120.625C56.9537 122.729 59.0162 125.323 60.5787 128.406C61.7368 130.691 62.5572 133.223 63.0401 136C63.2087 136.97 63.3362 137.97 63.4225 139H45.7975C45.6725 137.542 45.3391 136.219 44.7975 135.031C44.2767 133.844 43.5475 132.823 42.61 131.969C41.6933 131.094 40.5787 130.427 39.2662 129.969C37.9537 129.49 36.4642 129.25 34.7975 129.25C31.8808 129.25 29.4121 129.958 27.3912 131.375C25.3912 132.792 23.8704 134.823 22.8287 137.469C21.8079 140.115 21.2975 143.292 21.2975 147C21.2975 150.917 21.8183 154.198 22.86 156.844C23.9225 159.469 25.4537 161.448 27.4537 162.781C29.4537 164.094 31.86 164.75 34.6725 164.75C36.2767 164.75 37.7142 164.552 38.985 164.156C40.2558 163.74 41.36 163.146 42.2975 162.375C43.235 161.604 43.9954 160.677 44.5787 159.594C45.1829 158.49 45.5892 157.25 45.7975 155.875L63.4225 156C63.3462 156.992 63.1958 157.991 62.9714 158.997C62.5831 160.737 61.973 162.499 61.1412 164.281C59.8287 167.073 57.9642 169.656 55.5475 172.031C53.1517 174.385 50.1829 176.281 46.6412 177.719C43.0996 179.156 38.985 179.875 34.2975 179.875C28.4225 179.875 23.1517 178.615 18.485 176.094C13.8392 173.573 10.1621 169.865 7.45374 164.969C4.76624 160.073 3.42249 154.083 3.42249 147C3.42249 139.875 4.79749 133.875 7.54749 129C10.2975 124.104 14.0058 120.406 18.6725 117.906C23.3392 115.385 28.5475 114.125 34.2975 114.125C38.3392 114.125 42.0579 114.677 45.4537 115.781Z" fill="white"/>
<path fill-rule="evenodd" clip-rule="evenodd" d="M107.494 132.625H106.994L100.616 153.75H113.871L107.494 132.625ZM107.244 142.177L104.656 150.75H109.832L107.244 142.177Z" fill="white"/>
<path fill-rule="evenodd" clip-rule="evenodd" d="M95.2218 182L98.9199 169.75H115.568L119.266 182H144.393L121.288 112H93.1998L70.0943 182H95.2218ZM92.9937 179L96.6919 166.75H117.796L121.494 179H140.244L119.119 115H95.3687L74.2437 179H92.9937Z" fill="white"/>
<path fill-rule="evenodd" clip-rule="evenodd" d="M150.448 112V182H199.698V162H173.823V112H150.448ZM170.823 165H196.698V179H153.448V115H170.823V165Z" fill="white"/>
<path fill-rule="evenodd" clip-rule="evenodd" d="M207.761 112V182H259.761V162H231.136V157H257.511V137H231.136V132H259.886V112H207.761ZM228.136 165H256.761V179H210.761V115H256.886V129H228.136V140H254.511V154H228.136V165Z" fill="white"/>
<path fill-rule="evenodd" clip-rule="evenodd" d="M330.918 182V112H307.543V139.479L288.883 112H269.543V182H292.918V154.486L311.841 182H330.918ZM310.543 115H327.918V179H313.418L290.293 145.375H289.918V179H272.543V115H287.293L310.043 148.5H310.543V115Z" fill="white"/>
<path fill-rule="evenodd" clip-rule="evenodd" d="M366.677 129.75C370.011 129.75 372.823 130.26 375.115 131.281C377.427 132.302 379.177 134.062 380.365 136.562C381.573 139.062 382.177 142.542 382.177 147C382.177 151.458 381.583 154.938 380.396 157.438C379.229 159.938 377.521 161.698 375.271 162.719C373.042 163.74 370.344 164.25 367.177 164.25H360.552V129.75H366.677ZM367.177 161.25H363.552V132.75H366.677C369.721 132.75 372.091 133.218 373.894 134.022L373.903 134.026C375.493 134.728 376.744 135.933 377.655 137.85L377.659 137.859L377.664 137.868C378.591 139.787 379.177 142.75 379.177 147C379.177 151.254 378.601 154.225 377.686 156.15L377.682 156.16L377.677 156.169C376.776 158.101 375.553 159.297 374.031 159.987L374.022 159.991C372.281 160.788 370.034 161.25 367.177 161.25Z" fill="white"/>
<path fill-rule="evenodd" clip-rule="evenodd" d="M340.177 182H367.802C374.695 182 380.834 180.651 386.119 177.835L386.128 177.83C391.414 174.991 395.522 170.905 398.404 165.625L398.407 165.62C401.298 160.301 402.677 154.057 402.677 147C402.677 139.941 401.286 133.703 398.37 128.4C395.485 123.098 391.352 119.011 386.023 116.195C380.715 113.358 374.523 112 367.552 112H340.177V182ZM384.615 118.844C389.427 121.385 393.136 125.052 395.74 129.844C398.365 134.615 399.677 140.333 399.677 147C399.677 153.667 398.375 159.396 395.771 164.188C393.167 168.958 389.479 172.625 384.708 175.188C379.938 177.729 374.302 179 367.802 179H343.177V115H367.552C374.136 115 379.823 116.281 384.615 118.844Z" fill="white"/>
<path fill-rule="evenodd" clip-rule="evenodd" d="M441.842 132.625H441.342L434.965 153.75H448.22L441.842 132.625ZM441.592 142.177L439.004 150.75H444.18L441.592 142.177Z" fill="white"/>
<path fill-rule="evenodd" clip-rule="evenodd" d="M429.57 182L433.268 169.75H449.916L453.614 182H478.742L455.636 112H427.548L404.443 182H429.57ZM427.342 179L431.04 166.75H452.144L455.842 179H474.592L453.467 115H429.717L408.592 179H427.342Z" fill="white"/>
<path fill-rule="evenodd" clip-rule="evenodd" d="M511.296 144.375C513.338 144.375 515.078 144.125 516.515 143.625C517.973 143.104 519.088 142.281 519.859 141.156C520.65 140.031 521.046 138.562 521.046 136.75C521.046 134.917 520.65 133.427 519.859 132.281C519.088 131.115 517.973 130.26 516.515 129.719C515.078 129.156 513.338 128.875 511.296 128.875H505.171V144.375H511.296ZM517.405 139.43L517.395 139.445L517.384 139.461C517.02 139.992 516.46 140.456 515.523 140.794C514.49 141.152 513.106 141.375 511.296 141.375H508.171V131.875H511.296C513.078 131.875 514.425 132.122 515.422 132.512L515.446 132.522L515.47 132.531C516.402 132.877 516.975 133.359 517.356 133.935L517.373 133.961L517.391 133.987C517.742 134.494 518.046 135.335 518.046 136.75C518.046 138.139 517.744 138.949 517.405 139.43Z" fill="white"/>
<path fill-rule="evenodd" clip-rule="evenodd" d="M484.796 112V182H508.171V160.875H509.382L520.619 182H546.346L532.346 156.296C534.881 154.634 536.988 152.525 538.63 149.97C541.048 146.241 542.171 141.78 542.171 136.75C542.171 131.765 541.081 127.306 538.765 123.502C536.474 119.74 533.258 116.865 529.2 114.895C525.156 112.932 520.536 112 515.421 112H484.796ZM505.171 157.875V179H487.796V115H515.421C520.171 115 524.328 115.865 527.89 117.594C531.453 119.323 534.223 121.812 536.203 125.062C538.182 128.312 539.171 132.208 539.171 136.75C539.171 141.333 538.15 145.198 536.109 148.344C534.605 150.685 532.645 152.599 530.23 154.086C529.616 154.465 528.972 154.815 528.299 155.138L541.296 179H522.421L511.185 157.875H505.171Z" fill="white"/>
</svg>
