<svg width="68" height="100" viewBox="0 0 68 100" fill="none" xmlns="http://www.w3.org/2000/svg">
<path d="M36.5729 67.934L30.4453 68.8913C28.3303 69.221 26.6152 67.6894 26.6152 65.4717V7.61548C26.6152 5.3978 28.3303 3.32904 30.4453 2.99931L36.5729 2.0447C38.688 1.71498 40.403 3.24661 40.403 5.46428V63.3179C40.403 65.5356 38.688 67.6043 36.5729 67.934Z" fill="#002E5B"/>
<path d="M61.6638 38.2879C60.1822 38.506 58.9824 37.4929 58.9824 36.0277V26.1625C58.9824 24.6947 60.1822 23.3306 61.6638 23.1126C63.1453 22.8945 64.3451 23.9076 64.3451 25.3728V35.238C64.3451 36.7058 63.1453 38.0699 61.6638 38.2879Z" fill="#002E5B"/>
<path d="M2.67578 45.829C2.67578 47.2942 3.87554 48.3073 5.35712 48.0892C6.8387 47.8712 8.03845 46.5071 8.03845 45.0393V35.1741C8.03845 33.7089 6.8387 32.6958 5.35712 32.9138C3.87554 33.1319 2.67578 34.496 2.67578 35.9638V45.829Z" fill="#002E5B"/>
<path fill-rule="evenodd" clip-rule="evenodd" d="M30.7534 70.8674C27.3422 71.3993 24.6152 68.8308 24.6152 65.4717V7.61548C24.6152 4.46743 26.9948 1.51309 30.1373 1.02318L36.2649 0.0685743C36.2649 0.0685632 36.2648 0.0685854 36.2649 0.0685743C39.676 -0.463093 42.403 2.10532 42.403 5.46428V63.3179C42.403 66.4657 40.0238 69.4199 36.8816 69.9101C36.8814 69.9101 36.8819 69.91 36.8816 69.9101L30.7534 70.8674ZM36.5729 2.0447C38.688 1.71498 40.403 3.24661 40.403 5.46428V63.3179C40.403 65.5356 38.688 67.6043 36.5729 67.934L30.4453 68.8913C28.3303 69.221 26.6152 67.6894 26.6152 65.4717V7.61548C26.6152 5.3978 28.3303 3.32904 30.4453 2.99931L36.5729 2.0447ZM61.955 40.2666C59.3133 40.6554 56.9824 38.7608 56.9824 36.0277V26.1625C56.9824 23.6715 58.9406 21.4918 61.3726 21.1339C64.0142 20.7451 66.3451 22.6397 66.3451 25.3728V35.238C66.3451 37.7291 64.3869 39.9087 61.955 40.2666ZM5.64832 50.0679C3.00665 50.4567 0.675781 48.5621 0.675781 45.829V35.9638C0.675781 33.4727 2.63399 31.2931 5.06591 30.9352C7.70758 30.5464 10.0385 32.441 10.0385 35.1741V45.0393C10.0385 47.5303 8.08025 49.71 5.64832 50.0679ZM61.6638 38.2879C60.1822 38.506 58.9824 37.4929 58.9824 36.0277V26.1625C58.9824 24.6947 60.1822 23.3306 61.6638 23.1126C63.1453 22.8945 64.3451 23.9076 64.3451 25.3728V35.238C64.3451 36.7058 63.1453 38.0699 61.6638 38.2879ZM5.35712 48.0892C3.87554 48.3073 2.67578 47.2942 2.67578 45.829V35.9638C2.67578 34.496 3.87554 33.1319 5.35712 32.9138C6.8387 32.6958 8.03845 33.7089 8.03845 35.1741V45.0393C8.03845 46.5071 6.8387 47.8712 5.35712 48.0892Z" fill="white"/>
<path d="M46.7227 56.8615L52.8503 55.8696C54.9653 55.5266 56.6804 53.3834 56.6804 51.0833V12.7606C56.6804 10.4605 54.9653 8.87306 52.8503 9.21608L46.7227 10.2079C44.6077 10.5509 42.8926 12.6942 42.8926 14.9943V53.3169C42.8926 55.617 44.6077 57.2045 46.7227 56.8615Z" fill="#DD0915"/>
<path d="M14.168 61.7468L20.2956 60.755V60.7576C22.4106 60.4146 24.1257 58.2687 24.1257 55.9659V17.5901C24.1257 15.2873 22.4106 13.6972 20.2956 14.0402L14.168 15.0321C12.053 15.3751 10.3379 17.521 10.3379 19.8237V58.1969C10.3379 60.4997 12.053 62.0898 14.168 61.7468Z" fill="#DD0915"/>
<path fill-rule="evenodd" clip-rule="evenodd" d="M53.1699 57.8439L47.0429 58.8357C43.545 59.403 40.8926 56.6747 40.8926 53.3169V14.9943C40.8926 11.8205 43.2169 8.75037 46.4025 8.23372L52.5301 7.24188C56.0276 6.675 58.6804 9.40304 58.6804 12.7606V51.0833C58.6804 54.257 56.3555 57.3273 53.1699 57.8439ZM52.8503 9.21608C54.9653 8.87306 56.6804 10.4605 56.6804 12.7606V51.0833C56.6804 53.3834 54.9653 55.5266 52.8503 55.8696L46.7227 56.8615C44.6077 57.2045 42.8926 55.617 42.8926 53.3169V14.9943C42.8926 12.6942 44.6077 10.5509 46.7227 10.2079L52.8503 9.21608ZM20.2956 60.7576C20.3009 60.7568 20.3065 60.7558 20.3118 60.755C21.0386 60.6338 21.7177 60.2998 22.2956 59.82C23.3933 58.9085 24.1257 57.4707 24.1257 55.9659V17.5901C24.1257 15.2873 22.4106 13.6972 20.2956 14.0402L14.168 15.0321C12.053 15.3751 10.3379 17.521 10.3379 19.8237V58.1969C10.3379 60.4997 12.053 62.0898 14.168 61.7468L20.2956 60.755V60.7576C20.2955 60.7576 20.2957 60.7576 20.2956 60.7576ZM18.2956 63.1047L14.4882 63.721C10.9873 64.2888 8.33789 61.5541 8.33789 58.1969V19.8237C8.33789 16.6494 10.6603 13.5748 13.8478 13.0579L19.9754 12.066C19.9756 12.066 19.9752 12.0661 19.9754 12.066C23.476 11.4987 26.1257 14.2332 26.1257 17.5901V55.9659C26.1257 59.1403 23.8033 62.2149 20.6158 62.7318L18.2956 63.1081V63.1047Z" fill="white"/>
<path d="M26.2797 89.7839V75.97C26.2797 75.8051 26.2073 75.6801 26.0597 75.5977C25.912 75.5153 25.751 75.4515 25.5792 75.4116C25.3645 75.3584 25.131 75.3291 24.8787 75.3291C24.6398 75.3291 24.4305 75.3557 24.2587 75.4116C24.1003 75.4515 23.9554 75.51 23.8292 75.5871C23.7031 75.6642 23.6387 75.7706 23.6387 75.9088V89.7839H26.2797Z" fill="white"/>
<path fill-rule="evenodd" clip-rule="evenodd" d="M21.6593 89.7839L19.3594 84.2882C19.9189 83.9002 20.3474 83.377 20.6474 82.7134C20.9481 82.0513 21.1118 81.2004 21.1386 80.1634C21.1655 79.3736 21.0581 78.6796 20.8192 78.0786C20.5803 77.4777 20.2422 76.9725 19.81 76.5656C19.3779 76.1588 18.8679 75.853 18.2801 75.6535C17.6923 75.4541 17.0723 75.3531 16.4201 75.3531H14.5789L11.5996 75.4142V89.8477H14.179L14.2595 85.2847H15.9585C16.1061 85.2714 16.243 85.2608 16.3691 85.2528C16.4953 85.2449 16.6187 85.2289 16.7395 85.1997H16.7986L18.6398 89.7839H21.6593ZM15.6793 82.6895C16.039 82.6895 16.3933 82.6522 16.7395 82.5751C17.0857 82.498 17.3971 82.3677 17.6682 82.1816C17.9419 81.9955 18.162 81.7428 18.3284 81.4238C18.4949 81.1047 18.5781 80.7058 18.5781 80.2219C18.5781 79.7804 18.5056 79.4002 18.358 79.0811C18.2104 78.762 18.0144 78.5014 17.7675 78.294C17.5206 78.0866 17.2414 77.935 16.9274 77.8367C16.6134 77.7409 16.2913 77.6904 15.9585 77.6904H14.179V82.6895H15.6793Z" fill="white"/>
<path fill-rule="evenodd" clip-rule="evenodd" d="M7.35958 82.235C7.6253 82.36 7.88833 82.5222 8.14868 82.7216C8.40903 82.9211 8.63986 83.1684 8.83848 83.4582C9.0371 83.748 9.20082 84.0884 9.32965 84.474C9.4558 84.8622 9.52022 85.2956 9.52022 85.7796C9.52022 86.4284 9.39675 87.0027 9.14982 87.5C8.90289 87.9972 8.56739 88.42 8.14063 88.7657C7.71387 89.1114 7.20659 89.372 6.62148 89.5448C6.03368 89.7177 5.39488 89.8028 4.7024 89.8028H0V75.4517H4.5011C6.1142 75.4517 7.29785 75.7362 8.04938 76.3026C8.80359 76.869 9.17935 77.7624 9.17935 78.9776C9.17935 79.419 9.12567 79.8099 9.01831 80.1503C8.91094 80.488 8.77406 80.7938 8.60765 81.0624C8.44124 81.3309 8.24799 81.5649 8.0279 81.7564C7.80781 81.9505 7.58504 82.11 7.3569 82.235H7.35958ZM2.74038 81.0943H4.20049C4.90639 81.0943 5.45124 80.9454 5.82969 80.6475C6.21082 80.3497 6.3987 79.9057 6.3987 79.31C6.3987 78.7144 6.18935 78.2863 5.76796 78.0656C5.34925 77.8449 4.8044 77.7332 4.13876 77.7332H2.7377V81.0916L2.74038 81.0943ZM2.74038 87.3989H4.2998C5.0728 87.3989 5.66328 87.2687 6.06857 87.0054C6.47386 86.7422 6.67784 86.2715 6.67784 85.5961C6.67784 84.9606 6.48728 84.4926 6.10883 84.1974C5.7277 83.8996 5.09964 83.7507 4.21928 83.7507H2.74038V87.3989Z" fill="white"/>
<path d="M38.275 78.0863H34.6167V89.7623H32.0158V78.0863H28.3361C28.1616 78.0863 28.0328 78.0198 27.9469 77.8895C27.861 77.7592 27.7966 77.6103 27.7563 77.4427C27.7026 77.2486 27.6758 77.0279 27.6758 76.778C27.6758 76.544 27.7026 76.3366 27.7563 76.1558C27.7966 76.0042 27.8637 75.8579 27.9549 75.7197C28.0489 75.5814 28.175 75.5123 28.3361 75.5123H38.3152C38.4629 75.5123 38.5783 75.5814 38.6642 75.7197C38.75 75.8579 38.8145 76.0095 38.8547 76.177C38.9084 76.3711 38.9352 76.5865 38.9352 76.8205C38.9218 77.0705 38.8896 77.2832 38.8359 77.464C38.7957 77.6156 38.7313 77.7565 38.6454 77.8895C38.5595 78.0198 38.436 78.0863 38.275 78.0863Z" fill="white"/>
<path d="M42.977 89.7839V75.97C42.977 75.8051 42.9045 75.6801 42.7569 75.5977C42.6093 75.5153 42.4483 75.4515 42.2765 75.4116C42.0618 75.3584 41.8283 75.3291 41.576 75.3291C41.3371 75.3291 41.1277 75.3557 40.9559 75.4116C40.7976 75.4515 40.6527 75.51 40.5265 75.5871C40.4004 75.6642 40.3359 75.7706 40.3359 75.9088V89.7839H42.977Z" fill="white"/>
<path d="M44.6352 87.9386L44.7163 87.7711C44.7834 87.6329 44.8774 87.4946 44.9955 87.3563C45.1162 87.2181 45.2585 87.0878 45.4249 86.9628C45.5913 86.8378 45.7873 86.7341 46.0154 86.6517C46.1764 86.6251 46.2892 86.6304 46.3563 86.673C46.4099 86.6995 46.4502 86.7288 46.477 86.7554C46.877 87.1144 47.2688 87.3643 47.658 87.5026C48.0445 87.6409 48.4766 87.71 48.9571 87.71C49.2362 87.71 49.5261 87.6834 49.8267 87.6276C50.1273 87.5717 50.3957 87.4787 50.6373 87.3484C50.8762 87.2181 51.0775 87.0452 51.2385 86.8298C51.3995 86.6144 51.4774 86.3485 51.4774 86.0321C51.4774 85.5216 51.3137 85.128 50.9862 84.8488C50.6587 84.5723 50.2561 84.3383 49.7757 84.1442C49.2953 83.9501 48.7692 83.7666 48.1948 83.5937C47.6204 83.4209 47.0944 83.1896 46.6139 82.8997C46.1335 82.6099 45.7309 82.2163 45.4034 81.7164C45.076 81.2192 44.9123 80.5544 44.9123 79.7248C44.9123 79.0068 45.0411 78.3793 45.3014 77.8475C45.5618 77.3156 45.908 76.8716 46.3428 76.5206C46.775 76.1669 47.2796 75.909 47.8513 75.7441C48.4256 75.5793 49.0242 75.4942 49.6522 75.4942C50.2803 75.4942 50.9513 75.5926 51.5928 75.784C52.2316 75.9781 52.806 76.2946 53.3132 76.7386C53.3938 76.8078 53.4474 76.8902 53.4743 76.9859C53.4877 77.0418 53.4877 77.0896 53.4743 77.1322C53.4072 77.3795 53.3132 77.5922 53.1951 77.765C53.0744 77.9379 52.9482 78.0841 52.814 78.2011C52.6798 78.3181 52.551 78.4112 52.4248 78.4803C52.2987 78.5495 52.1886 78.6053 52.0947 78.6452C52.0544 78.6585 52.0088 78.6665 51.9551 78.6665C51.8478 78.6665 51.7485 78.6239 51.6545 78.5415C51.4532 78.4165 51.2788 78.3181 51.1258 78.241C50.9728 78.1639 50.8117 78.1027 50.6453 78.0549C50.4789 78.007 50.2964 77.9724 50.0951 77.9512C49.8938 77.9299 49.6603 77.9193 49.3946 77.9193C48.847 77.906 48.4122 78.0123 48.0848 78.241C47.7573 78.4697 47.5936 78.9084 47.5936 79.5573C47.5936 80.0279 47.7573 80.3869 48.0848 80.6368C48.4122 80.8868 48.8202 81.0995 49.3141 81.2803C49.8079 81.4612 50.3394 81.6367 50.9137 81.8095C51.4854 81.9823 52.0195 82.2217 52.5134 82.5248C53.0073 82.8279 53.4152 83.2348 53.7427 83.7373C54.0701 84.2426 54.2339 84.91 54.2339 85.7396C54.2339 86.4868 54.0809 87.1356 53.7749 87.6887C53.4689 88.2418 53.0663 88.7045 52.5644 89.0794C52.0652 89.4517 51.4935 89.7282 50.8547 89.9091C50.2159 90.0899 49.569 90.1776 48.9141 90.1776C48.0875 90.1776 47.301 90.0473 46.5549 89.7841C45.8087 89.5208 45.1619 89.0714 44.6143 88.4359C44.5875 88.4093 44.5687 88.3748 44.5553 88.3322C44.5284 88.2365 44.5284 88.1594 44.5553 88.1035C44.5778 88.0575 44.6044 88.0024 44.6352 87.9386Z" fill="white"/>
<path d="M58.7946 89.7834V84.3695H64.5357V89.7834H67.2144V75.9508C67.2144 75.8125 67.15 75.7062 67.0158 75.6291C66.8843 75.5546 66.7447 75.4961 66.5971 75.4536C66.4092 75.4004 66.2025 75.3711 65.9771 75.3711C65.7087 75.3711 65.4752 75.3898 65.2765 75.4323C65.1048 75.4722 64.9464 75.536 64.8068 75.6184C64.6673 75.7009 64.5975 75.8258 64.5975 75.9907V81.838H58.7571V75.9907C58.7571 75.8258 58.6846 75.7009 58.537 75.6184C58.3893 75.536 58.2283 75.4722 58.0565 75.4323C57.8418 75.3924 57.6083 75.3711 57.356 75.3711C57.1171 75.3711 56.9078 75.3977 56.736 75.4536C56.5884 75.4935 56.4515 75.5546 56.3253 75.6291C56.1992 75.7062 56.1348 75.8125 56.1348 75.9508V89.7834H58.7946Z" fill="white"/>
<path d="M64.2015 96.9634C64.2471 97.0086 64.3008 97.0298 64.3652 97.0298L64.3679 97.0325H65.8253C65.6697 97.3463 65.4711 97.5803 65.2268 97.7318C64.9826 97.8834 64.6578 97.9605 64.2525 97.9605C63.603 97.9605 63.1091 97.7584 62.7709 97.3489C62.4327 96.9394 62.2636 96.3757 62.2636 95.6551C62.2636 95.3227 62.3066 95.0196 62.3925 94.7457C62.4784 94.4691 62.6072 94.2351 62.7736 94.041C62.9427 93.8469 63.1494 93.698 63.3963 93.5916C63.6432 93.4879 63.9277 93.4348 64.2498 93.4348C64.5209 93.4348 64.7625 93.472 64.9745 93.5491C65.1865 93.6262 65.3771 93.7273 65.5435 93.8549C65.5623 93.8735 65.5865 93.8895 65.6106 93.9028C65.6294 93.9161 65.6536 93.9267 65.6831 93.932C65.7126 93.9373 65.7421 93.9347 65.7743 93.9214C65.8334 93.9161 65.9032 93.9001 65.9837 93.8788C66.0642 93.8575 66.1421 93.8203 66.2199 93.7698C66.2977 93.7166 66.3702 93.6501 66.4373 93.5677C66.5044 93.4853 66.5554 93.3789 66.5876 93.2513C66.601 93.2114 66.6037 93.1768 66.593 93.1449C66.5822 93.113 66.5715 93.0864 66.5581 93.0598C66.5516 93.0516 66.5445 93.0428 66.537 93.0334C66.5227 93.0155 66.5068 92.9957 66.491 92.9747C66.2011 92.7141 65.8683 92.5174 65.4925 92.3818C65.1168 92.2461 64.7034 92.185 64.2525 92.1903H64.2418C63.7586 92.1903 63.3158 92.2727 62.9132 92.4429C62.5106 92.6131 62.1617 92.8524 61.8664 93.1609C61.5712 93.4693 61.3403 93.8416 61.1766 94.275C61.0102 94.7085 60.9297 95.1951 60.9297 95.7189C60.9297 96.2427 61.0129 96.7161 61.1766 97.1442C61.3403 97.5723 61.5712 97.9392 61.8664 98.245C62.1617 98.5508 62.5106 98.7848 62.9132 98.9523C63.3158 99.1199 63.7586 99.2023 64.2418 99.2023C64.7303 99.197 65.1597 99.1278 65.5301 98.9976C65.9005 98.8646 66.2092 98.6625 66.4614 98.3886C66.7111 98.1147 66.8989 97.7584 67.0251 97.3223C67.1512 96.8862 67.213 96.3571 67.213 95.7402L66.083 95.7694H64.384C64.3196 95.7774 64.2606 95.8013 64.2096 95.8465C64.1639 95.8838 64.1264 95.9449 64.0941 96.0274C64.0619 96.1098 64.0458 96.2348 64.0458 96.3996C64.0458 96.5645 64.0619 96.6921 64.0941 96.7772C64.1264 96.8623 64.1639 96.9261 64.2015 96.9634Z" fill="white"/>
<path fill-rule="evenodd" clip-rule="evenodd" d="M9.84795 92.4508C9.44267 92.2886 8.99444 92.2088 8.50594 92.2168V92.2115C8.02282 92.2115 7.57996 92.2939 7.17735 92.4588C6.77475 92.6236 6.42851 92.8603 6.13864 93.1661C5.84876 93.4745 5.62331 93.8415 5.46227 94.2723C5.30122 94.703 5.2207 95.2029 5.2207 95.7215C5.2207 96.24 5.30122 96.708 5.46227 97.1334C5.62331 97.5562 5.84876 97.9205 6.13864 98.2236C6.42851 98.5268 6.77475 98.7608 7.17735 98.923C7.57996 99.0852 8.02282 99.1676 8.50594 99.1676C8.99444 99.1623 9.44267 99.0746 9.84795 98.9044C10.2532 98.7369 10.6022 98.5002 10.8947 98.1971C11.1873 97.8939 11.4154 97.5323 11.5765 97.1122C11.7375 96.6894 11.818 96.24 11.818 95.7055C11.818 95.171 11.7375 94.6871 11.5765 94.2563C11.4154 93.8282 11.1873 93.4586 10.8947 93.1528C10.6022 92.847 10.2532 92.613 9.84795 92.4508ZM9.99289 97.3275C9.65762 97.7341 9.16957 97.9362 8.52607 97.9365C7.8772 97.9362 7.38647 97.7341 7.0512 97.3275C6.7157 96.9234 6.54929 96.3623 6.54929 95.6497C6.54929 95.3253 6.59224 95.0274 6.67544 94.7562C6.75865 94.485 6.8848 94.251 7.0512 94.0569C7.21761 93.8628 7.42697 93.7139 7.6739 93.6075C7.92083 93.5038 8.20802 93.4506 8.52742 93.4506C8.84681 93.4506 9.13132 93.5011 9.37557 93.6075C9.61981 93.7139 9.82648 93.8601 9.99289 94.0569C10.1593 94.2536 10.2854 94.485 10.3687 94.7562C10.4519 95.0274 10.4948 95.3253 10.4948 95.6497C10.4948 96.3623 10.3284 96.9234 9.99289 97.3275Z" fill="white"/>
<path fill-rule="evenodd" clip-rule="evenodd" d="M3.07857 92.4935C2.83969 92.4191 2.55519 92.3792 2.21968 92.3792V92.3765H0V98.987H1.25881V96.9315H2.13648C2.36999 96.9262 2.59276 96.8969 2.81285 96.8464C2.99805 96.8012 3.19398 96.7374 3.40065 96.655C3.60732 96.5725 3.78447 96.4555 3.93209 96.3013C4.05287 96.1923 4.16292 96.054 4.25954 95.8892C4.34274 95.7429 4.4179 95.5594 4.485 95.344C4.5521 95.126 4.58162 94.8601 4.57625 94.541C4.57625 94.3628 4.56015 94.1873 4.52794 94.0145C4.49573 93.8683 4.44742 93.714 4.383 93.5465C4.31859 93.379 4.22196 93.2327 4.09313 93.1051C3.97772 92.9695 3.83278 92.8498 3.65832 92.7408C3.5107 92.653 3.31745 92.568 3.07857 92.4935ZM1.24539 95.7642V93.4401L2.21968 93.4588C2.52835 93.496 2.75917 93.5784 2.90948 93.6981C3.06247 93.8204 3.16983 93.948 3.23424 94.081C3.30403 94.2405 3.33624 94.4134 3.33087 94.5968C3.33892 94.884 3.27719 95.1021 3.14836 95.2563C3.01952 95.4105 2.87995 95.5222 2.72428 95.5913C2.54445 95.6738 2.3351 95.7216 2.09622 95.7349L1.24539 95.7642Z" fill="white"/>
<path d="M21.739 92.7434L19.6642 99.0188H18.4967L17.0581 94.6286L15.6677 99.0081L14.4814 98.9895L12.4066 92.7061C12.3879 92.6556 12.3905 92.6131 12.4174 92.5811C12.4308 92.5625 12.4442 92.5492 12.455 92.5439C12.5006 92.52 12.5623 92.4907 12.6375 92.4588C12.7153 92.4269 12.8039 92.403 12.9086 92.387C13.0105 92.3711 13.126 92.3684 13.2521 92.3817C13.3783 92.395 13.5151 92.4296 13.6628 92.4881C13.6762 92.4934 13.6923 92.5067 13.7111 92.5253C13.7433 92.5572 13.7701 92.5944 13.7889 92.6396L15.0719 96.6947L16.3065 92.6583C16.3119 92.6077 16.3414 92.5625 16.3924 92.5253C16.4092 92.5137 16.4239 92.5031 16.4371 92.4935L16.4595 92.4774C16.5105 92.4588 16.5776 92.4376 16.6581 92.4163C16.7387 92.395 16.8299 92.3791 16.9292 92.3684C17.0285 92.3578 17.1413 92.3604 17.262 92.3737C17.3855 92.387 17.509 92.4216 17.6378 92.4801L17.6549 92.4921C17.6703 92.5027 17.6876 92.5146 17.7049 92.528C17.7559 92.5652 17.7908 92.6104 17.8123 92.6609L19.0872 96.716L20.3326 92.6423C20.3513 92.5971 20.3809 92.5625 20.4184 92.5359C20.4319 92.5264 20.444 92.5196 20.4547 92.5136L20.4668 92.5067C20.5178 92.4881 20.5849 92.4668 20.6707 92.4455C20.7539 92.4243 20.8506 92.411 20.9552 92.4083C21.0626 92.4057 21.1753 92.4163 21.2988 92.4429C21.4223 92.4695 21.5457 92.5173 21.6746 92.5865C21.6934 92.5944 21.7095 92.6051 21.7229 92.6264C21.7497 92.6716 21.7551 92.7114 21.7417 92.7513L21.739 92.7434Z" fill="white"/>
<path d="M22.5254 98.9896H26.4548L26.4575 98.9843C26.5273 98.9843 26.5836 98.955 26.6212 98.8939C26.6588 98.8327 26.6883 98.7662 26.7071 98.6971C26.7339 98.612 26.75 98.5136 26.7554 98.3993C26.7554 98.2982 26.7447 98.2051 26.7178 98.1227C26.699 98.0509 26.6668 97.9871 26.6212 97.9313C26.5756 97.8754 26.5165 97.8462 26.4467 97.8462H23.7922V96.3544H25.6066C25.6764 96.3544 25.7328 96.3252 25.7704 96.264C25.8079 96.2055 25.8375 96.139 25.8563 96.0699C25.8804 95.9875 25.8938 95.8917 25.8938 95.7827C25.8938 95.6817 25.8831 95.5886 25.8643 95.5062C25.8509 95.437 25.8241 95.3706 25.7865 95.3147C25.7489 95.2589 25.6925 95.2296 25.6227 95.2296H23.7896V93.5571H26.4548C26.5246 93.5571 26.5809 93.5278 26.6239 93.4667C26.6642 93.4055 26.6964 93.339 26.7151 93.2699C26.7393 93.1875 26.7527 93.0864 26.7527 92.9721C26.7527 92.871 26.742 92.778 26.7151 92.6955C26.6937 92.6264 26.6668 92.5599 26.6319 92.5041C26.597 92.4482 26.5434 92.419 26.4736 92.419H22.5254V98.9896Z" fill="white"/>
<path fill-rule="evenodd" clip-rule="evenodd" d="M31.5672 96.4449L32.6784 98.979H31.221L30.3326 96.865H30.303C30.244 96.8783 30.1849 96.8863 30.1232 96.8889C30.0615 96.8916 29.9971 96.8969 29.9246 96.9049H29.1033L29.0657 99.0082H27.8203V92.3525L29.2589 92.3233H30.1474C30.4614 92.3233 30.762 92.3685 31.0438 92.4616C31.3256 92.5546 31.5726 92.6956 31.7819 92.8817C31.9913 93.0705 32.155 93.3018 32.2704 93.581C32.3858 93.8576 32.4368 94.1793 32.4261 94.5436C32.4127 95.0223 32.3348 95.4131 32.1899 95.7189C32.045 96.0247 31.8383 96.2667 31.5672 96.4449ZM29.7904 95.7083C29.9648 95.7083 30.1339 95.6897 30.303 95.6551C30.4721 95.6205 30.6197 95.5594 30.7513 95.4743C30.8828 95.3892 30.9901 95.2722 31.0707 95.126C31.1512 94.9797 31.1914 94.7936 31.1914 94.5702C31.1914 94.3655 31.1565 94.19 31.0841 94.0437C31.0143 93.8975 30.9177 93.7751 30.7996 93.6794C30.6815 93.5837 30.5446 93.5146 30.3943 93.4694C30.244 93.4241 30.0883 93.4029 29.9273 93.4029H29.0684V95.7083H29.7904Z" fill="white"/>
<path d="M33.7148 98.9899H37.4403C37.5127 98.9899 37.5691 98.9633 37.6147 98.9048C37.6604 98.8463 37.6926 98.7825 37.7113 98.7134C37.7355 98.6389 37.7489 98.5459 37.7489 98.4368C37.7489 98.3278 37.7382 98.2321 37.7113 98.1497C37.6926 98.0779 37.663 98.0114 37.6201 97.9476C37.5771 97.8837 37.5181 97.8518 37.4403 97.8518H34.979V92.6666C34.979 92.5922 34.9441 92.531 34.877 92.4858C34.8099 92.4406 34.7348 92.406 34.6516 92.3795C34.5549 92.3529 34.4476 92.3369 34.3322 92.3316C34.2168 92.3369 34.1148 92.3555 34.0235 92.3795C33.9457 92.406 33.8759 92.4406 33.8115 92.4858C33.7471 92.5284 33.7148 92.5895 33.7148 92.6666V98.9899Z" fill="white"/>
<path d="M39.9507 98.9791H38.6758V92.5787C38.6758 92.5149 38.7053 92.467 38.767 92.4298C38.8288 92.3952 38.8986 92.3686 38.9737 92.35C39.0569 92.3234 39.1562 92.3101 39.2743 92.3101C39.3978 92.3101 39.5105 92.3234 39.6125 92.35C39.6957 92.3686 39.7735 92.3979 39.8433 92.4351C39.9131 92.4723 39.9507 92.5308 39.9507 92.6079V98.9791Z" fill="white"/>
<path d="M42.3755 96.2933H43.9967C44.0745 96.2933 44.1335 96.264 44.1765 96.2029C44.2167 96.1444 44.2489 96.0779 44.2677 96.0088C44.2919 95.9237 44.3053 95.8253 44.3053 95.7109C44.3053 95.6072 44.2946 95.5142 44.2677 95.4317C44.2489 95.3599 44.2194 95.2961 44.1765 95.2403C44.1335 95.1844 44.0772 95.1552 44.0074 95.1552H42.3755V93.5571H44.8663C44.9361 93.5571 44.9897 93.5278 45.0246 93.4667C45.0622 93.4055 45.089 93.339 45.1078 93.2699C45.132 93.1875 45.1454 93.0864 45.1454 92.9721C45.1454 92.871 45.1347 92.778 45.1078 92.6955C45.089 92.6264 45.0595 92.5626 45.0219 92.5041C44.9817 92.4482 44.9253 92.419 44.8475 92.419H41.1113V98.9896H42.3755V96.2933Z" fill="white"/>
<path d="M50.8599 93.5864H49.0938V98.971H47.8377V93.5864H46.0609C45.9777 93.5864 45.9159 93.5571 45.873 93.496C45.83 93.4348 45.8005 93.3657 45.7817 93.2912C45.7549 93.2008 45.7441 93.0998 45.7441 92.9854C45.7441 92.8711 45.7576 92.7807 45.7817 92.6982C45.8005 92.6291 45.8327 92.56 45.8783 92.4962C45.924 92.4323 45.9857 92.4004 46.0609 92.4004H50.8787C50.9485 92.4004 51.0048 92.4323 51.0478 92.4962C51.0907 92.56 51.1202 92.6291 51.139 92.7062C51.1659 92.7966 51.1766 92.895 51.1766 93.004C51.1712 93.1184 51.1551 93.2194 51.1283 93.3019C51.1095 93.371 51.0773 93.4375 51.037 93.4986C50.9941 93.5598 50.935 93.589 50.8599 93.589V93.5864Z" fill="white"/>
<path d="M53.1265 98.9791V92.6079C53.1265 92.5308 53.0889 92.4723 53.0191 92.4351C52.9493 92.3979 52.8715 92.3686 52.7883 92.35C52.6863 92.3234 52.5736 92.3101 52.4501 92.3101C52.332 92.3101 52.2327 92.3234 52.1495 92.35C52.0743 92.3686 52.0046 92.3952 51.9428 92.4298C51.8811 92.467 51.8516 92.5149 51.8516 92.5787V98.9791H53.1265Z" fill="white"/>
<path d="M60.139 92.6292V99.0083H58.8748L55.4768 94.4932V98.9791H54.2207V92.5893C54.2207 92.5388 54.2368 92.4962 54.269 92.4643C54.2824 92.4457 54.2985 92.4324 54.3173 92.4271C54.3549 92.4085 54.4113 92.3899 54.4864 92.3739C54.5616 92.358 54.6448 92.3473 54.7414 92.3393C54.838 92.334 54.9427 92.334 55.0554 92.3447C55.1682 92.3553 55.2809 92.3792 55.399 92.4165C55.4178 92.4218 55.4366 92.4324 55.458 92.4457L55.5735 92.5601L58.8748 96.8731V92.5973C58.8748 92.5335 58.907 92.4829 58.9714 92.4431C59.0358 92.4058 59.111 92.3766 59.1942 92.358C59.2854 92.3314 59.3901 92.3154 59.5136 92.3101C59.629 92.3181 59.7337 92.3314 59.8223 92.358C59.9001 92.3766 59.9726 92.4058 60.0397 92.4484C60.1068 92.4909 60.1417 92.5494 60.1417 92.6239L60.139 92.6292Z" fill="white"/>
</svg>
