<svg width="93" height="93" viewBox="0 0 93 93" fill="none" xmlns="http://www.w3.org/2000/svg">
<path d="M46.3512 76.7581C63.1472 76.7581 76.763 63.1423 76.763 46.3463C76.763 29.5504 63.1472 15.9345 46.3512 15.9345C29.5553 15.9345 15.9394 29.5504 15.9394 46.3463C15.9394 63.1423 29.5553 76.7581 46.3512 76.7581Z" fill="#E06047"/>
<path fill-rule="evenodd" clip-rule="evenodd" d="M14.2733 14.2707C31.9866 -3.44736 60.7112 -3.44736 78.4245 14.2707C96.1379 31.984 96.1379 60.7086 78.4245 78.4219C60.7112 96.1353 31.9866 96.1353 14.2733 78.4219C-3.44007 60.7086 -3.44007 31.984 14.2733 14.2707ZM46.5 77C63.3447 77 77 63.3447 77 46.5C77 29.6553 63.3447 16 46.5 16C29.6553 16 16 29.6553 16 46.5C16 63.3447 29.6553 77 46.5 77Z" fill="#203F5B"/>
<path d="M46.3502 77.249C38.433 77.249 30.5157 74.2344 24.4913 68.21C18.6539 62.3726 15.4383 54.6095 15.4383 46.3511C15.4383 38.0927 18.6539 30.3296 24.4913 24.4922C36.5448 12.4387 56.1557 12.4387 68.2091 24.4922C80.2626 36.5457 80.2626 56.1565 68.2091 68.21C62.1801 74.2391 54.2675 77.249 46.3502 77.249ZM46.3502 16.4581C38.69 16.4581 31.0345 19.3745 25.2017 25.2026C19.5512 30.8531 16.4432 38.3591 16.4432 46.3511C16.4432 54.3431 19.5559 61.8491 25.2017 67.4996C36.8626 79.1605 55.8332 79.1605 67.4941 67.4996C79.1549 55.8387 79.1549 36.8682 67.4941 25.2073C61.6659 19.3792 54.0058 16.4628 46.3456 16.4628L46.3502 16.4581Z" fill="white"/>
<path fill-rule="evenodd" clip-rule="evenodd" d="M47.1197 11.4898C47.087 11.5225 47.0542 11.5459 47.0215 11.5599C46.9888 11.5739 46.9608 11.5786 46.9421 11.5786L44.8529 11.5926C44.8529 11.5926 44.8062 11.5879 44.7735 11.5786C44.7408 11.5692 44.708 11.5459 44.6753 11.5085L44.222 11.0598C44.1612 10.999 44.1332 10.9336 44.1332 10.8588L44.1238 9.26042C44.1238 9.20901 44.1519 9.14825 44.2126 9.09217L44.4463 8.85848L44.2126 8.6248C44.1706 8.58741 44.1425 8.55469 44.1379 8.52665C44.1285 8.49861 44.1238 8.45654 44.1238 8.40981L44.1145 6.71793C44.1145 6.71793 44.1145 6.67586 44.1238 6.63847C44.1332 6.60108 44.1566 6.55902 44.1986 6.51696L44.6473 6.06361C44.6753 6.03556 44.708 6.01687 44.7501 5.99817C44.7922 5.97948 44.8296 5.97481 44.8529 5.97481L46.8766 5.96078C46.9047 5.96078 46.9327 5.96078 46.9654 5.97013C46.9982 5.97948 47.0402 6.00285 47.087 6.04491L47.5403 6.49359C47.5824 6.53565 47.6104 6.57771 47.6198 6.6151C47.6291 6.65249 47.6338 6.68054 47.6338 6.69456V7.54984C47.6385 7.62462 47.6104 7.66201 47.5497 7.66201H46.7598C46.6944 7.66669 46.6617 7.6293 46.6617 7.55452V6.93292L45.3577 6.94226C45.3437 6.94226 45.325 6.95161 45.311 6.96563L45.1754 7.10584C45.1754 7.10584 45.1521 7.13856 45.1521 7.15258V8.12938C45.1567 8.15743 45.1661 8.17612 45.1848 8.18547L45.2969 8.29764L48.2414 8.27894C48.3161 8.27894 48.3535 8.31633 48.3535 8.39111V9.13423C48.3582 9.20901 48.3208 9.2464 48.246 9.2464H47.6478L47.6572 10.8401C47.6572 10.8542 47.6572 10.8822 47.6478 10.9196C47.6385 10.957 47.6151 10.999 47.573 11.0411L47.1244 11.4945L47.1197 11.4898ZM46.671 9.25107L45.3717 9.26042C45.3717 9.26042 45.339 9.26977 45.325 9.28379L45.1894 9.43802C45.1894 9.43802 45.1661 9.48008 45.1661 9.5128V10.4382C45.1707 10.4709 45.1801 10.4896 45.1988 10.5036L45.311 10.6158L46.6803 10.6064L46.671 9.25107Z" fill="white"/>
<path d="M36.4727 12.8637C36.4914 12.9385 36.5334 12.9665 36.6082 12.9479V12.9572L39.4498 12.2468C39.5246 12.2281 39.5526 12.186 39.534 12.1113L39.3564 11.3915C39.3377 11.3167 39.2956 11.2887 39.2208 11.3074L37.2111 11.8075L36.8793 10.4848L38.4683 10.0875C38.4917 10.0782 38.5151 10.0642 38.5338 10.0361C38.5478 10.0081 38.5572 9.98005 38.5478 9.94733L38.3702 9.22758C38.3609 9.19487 38.3422 9.1715 38.3141 9.15748C38.2814 9.14346 38.258 9.13878 38.23 9.14346L36.6409 9.54072L36.3091 8.21806L38.3188 7.71798C38.3515 7.70863 38.3749 7.68993 38.3889 7.66189C38.4029 7.62918 38.4076 7.60581 38.4029 7.57776L38.2253 6.85802C38.2066 6.78324 38.1646 6.75519 38.0898 6.77389L35.2482 7.48429C35.1734 7.50299 35.1453 7.54505 35.164 7.61983L36.4727 12.8637Z" fill="white"/>
<path fill-rule="evenodd" clip-rule="evenodd" d="M34.192 13.7565C34.164 13.7705 34.1313 13.7705 34.0939 13.7565C34.0611 13.7425 34.0331 13.7285 34.0144 13.7051L32.5328 12.1955L31.6963 12.5367L32.4394 14.3501C32.4674 14.4202 32.4487 14.4669 32.3786 14.4996L31.6916 14.78C31.6215 14.8081 31.5747 14.7894 31.542 14.7193L29.4903 9.71843C29.4622 9.64832 29.4809 9.60158 29.551 9.56887L31.9253 8.59674C31.9253 8.59674 31.9673 8.58272 31.986 8.57804C32.0094 8.57804 32.0328 8.57337 32.0561 8.5687C32.0795 8.5687 32.1122 8.57337 32.1449 8.58739L32.7338 8.8351C32.7899 8.85846 32.832 8.89118 32.8647 8.93792C32.8787 8.95661 32.888 8.97531 32.8974 8.994L33.6732 10.8869C33.7106 10.9757 33.7106 11.0598 33.6779 11.1392L33.4162 11.7608L34.9305 13.3078C34.9305 13.3078 34.9585 13.3546 34.9585 13.3826C34.9585 13.4107 34.9305 13.4387 34.8884 13.4574L34.178 13.7472L34.192 13.7565ZM32.6216 10.9476C32.6216 10.9476 32.631 10.9055 32.6216 10.8869L32.1589 9.76049C32.1589 9.76049 32.1449 9.73712 32.1309 9.72777L31.9533 9.66234C31.9206 9.65767 31.9019 9.65767 31.8925 9.66234L30.7148 10.1484L31.3317 11.6487L32.5095 11.1626C32.5095 11.1626 32.5422 11.1392 32.5515 11.1205L32.6216 10.9523V10.9476Z" fill="white"/>
<path d="M28.9895 16.0932C29.0269 16.1586 29.0783 16.1726 29.1438 16.1352L29.7934 15.7754C29.8588 15.738 29.8729 15.6866 29.8355 15.6211L27.2088 10.9007C27.1715 10.8353 27.12 10.8212 27.0546 10.8586L26.405 11.2185C26.3395 11.2559 26.3255 11.3073 26.3629 11.3727L28.9895 16.0932Z" fill="white"/>
<path d="M26.6898 17.6637C26.629 17.7058 26.5776 17.7011 26.5309 17.6403L25.2269 15.8456L23.8949 16.8131L25.1989 18.6078C25.2456 18.6686 25.2362 18.72 25.1755 18.7667L24.5772 19.2014C24.5165 19.2434 24.4651 19.2387 24.4183 19.178L21.2402 14.8081C21.1982 14.7473 21.2028 14.6959 21.2636 14.6492L21.8618 14.2145C21.9226 14.1725 21.974 14.1771 22.0207 14.2379L23.3247 16.0326L24.6567 15.0651L23.3527 13.2704C23.306 13.2097 23.3153 13.1583 23.3761 13.1115L23.9743 12.6769C24.0351 12.6301 24.0865 12.6395 24.1332 12.7002L27.3114 17.0701C27.3581 17.1309 27.3488 17.1823 27.288 17.2291L26.6898 17.6637Z" fill="white"/>
<path d="M22.634 20.8979C22.6527 20.8605 22.6621 20.8231 22.6621 20.7764L22.6527 20.7717V20.1267C22.6527 20.0426 22.6247 19.9725 22.5686 19.9164L21.2927 18.6358C21.2413 18.5797 21.1712 18.5517 21.0824 18.547H20.4421C20.3673 18.547 20.2972 18.575 20.2364 18.6358L19.0773 19.7902C19.0586 19.8089 19.0166 19.8183 19.0166 19.8183H18.825C18.8016 19.8183 18.7689 19.7949 18.7689 19.7949L18.1099 19.1312C18.0959 19.1125 18.0959 19.0751 18.0959 19.0751V18.8882C18.1005 18.8648 18.1239 18.8274 18.1239 18.8274L19.1288 17.8273L19.5681 18.2666C19.6195 18.318 19.6756 18.318 19.727 18.2666L20.2551 17.7431C20.3065 17.6917 20.3065 17.6356 20.2551 17.5842L19.6569 16.986C19.6335 16.9626 19.6101 16.9439 19.5821 16.9299C19.5587 16.9112 19.512 16.9019 19.4466 16.8972H18.8063C18.7689 16.8972 18.7315 16.9065 18.6941 16.9252C18.652 16.9439 18.6006 16.986 18.6006 16.986L17.1237 18.4535C17.077 18.5003 17.0536 18.533 17.0443 18.561C17.0349 18.5891 17.0303 18.6218 17.0303 18.6592V19.2995C17.0303 19.3509 17.0396 19.3976 17.0583 19.4303C17.077 19.4631 17.1144 19.5098 17.1144 19.5098L18.395 20.7951C18.4183 20.8184 18.4464 20.8371 18.4791 20.8558C18.5118 20.8745 18.5492 20.8792 18.5959 20.8792H19.2409C19.2923 20.8839 19.3344 20.8745 19.3671 20.8558C19.3998 20.8418 19.4325 20.8138 19.4325 20.8138L20.6243 19.6313C20.6384 19.6173 20.6804 19.6079 20.6804 19.6079H20.8627C20.8861 19.6079 20.9188 19.6313 20.9188 19.6313L21.5824 20.2996C21.6011 20.3183 21.6011 20.3557 21.6011 20.3557V20.5427C21.6011 20.566 21.5918 20.5894 21.5918 20.5894L20.5683 21.6083L20.157 21.197C20.1383 21.1783 20.1149 21.1643 20.0822 21.1643C20.0495 21.1643 19.9981 21.197 19.9981 21.197L19.4699 21.7204C19.4466 21.7438 19.4372 21.7719 19.4372 21.8046C19.4419 21.8326 19.4699 21.8794 19.4699 21.8794L20.0495 22.4636C20.0682 22.4823 20.0915 22.501 20.1196 22.515C20.1476 22.5337 20.1897 22.5337 20.2411 22.5337H20.8861C20.9328 22.5337 20.9655 22.5337 20.9936 22.5243C21.0216 22.515 21.0543 22.4916 21.0964 22.4495L22.5733 20.982L22.5789 20.975C22.5965 20.9531 22.6172 20.9274 22.634 20.8979Z" fill="white"/>
<path d="M19.0351 24.824C19.0164 24.852 18.9884 24.866 18.951 24.8754C18.9136 24.8847 18.8809 24.8847 18.8528 24.8754L16.2776 24.3005L16.5674 25.1979L17.8901 26.1747C17.9508 26.2214 17.9602 26.2728 17.9134 26.3336L17.4741 26.9318C17.4274 26.9926 17.3759 27.0019 17.3152 26.9552L12.9733 23.7397C12.9126 23.6929 12.9032 23.6415 12.95 23.5808L13.3893 22.9825C13.436 22.9218 13.4874 22.9124 13.5482 22.9592L15.2214 24.1977L14.3895 21.8234C14.3754 21.7861 14.3661 21.7533 14.3614 21.7253C14.3567 21.6973 14.3614 21.6692 14.3848 21.6412L14.9783 20.8373C15.0111 20.7952 15.0484 20.7672 15.0905 20.7625C15.1326 20.7578 15.1606 20.7812 15.1746 20.8326L15.9505 23.2629L19.4417 23.9547C19.4931 23.964 19.5305 23.9874 19.5539 24.0201C19.5773 24.0528 19.5726 24.0902 19.5399 24.1323L19.0304 24.8193L19.0351 24.824Z" fill="white"/>
<path fill-rule="evenodd" clip-rule="evenodd" d="M16.0623 29.1704C16.0997 29.161 16.1231 29.1377 16.1371 29.1096L16.1324 29.1237L16.4923 28.446C16.5157 28.3992 16.5203 28.3665 16.5016 28.3431C16.483 28.3198 16.4596 28.3011 16.4315 28.3011L14.277 28.0814L14.0807 27.4364C14.0573 27.357 14.0012 27.2962 13.9171 27.2495L12.1084 26.2914C12.0897 26.282 12.071 26.2727 12.0476 26.268C11.9915 26.2493 11.9354 26.2493 11.8794 26.268L11.2671 26.455C11.2297 26.4643 11.2017 26.4783 11.183 26.497L11.1728 26.5068L11.1639 26.515C11.152 26.5259 11.1408 26.5362 11.1316 26.5484C11.1175 26.5625 11.0942 26.5999 11.0942 26.5999L9.8977 28.8666C9.86031 28.9367 9.87901 28.9834 9.94444 29.0208L14.721 31.5446C14.7911 31.582 14.8378 31.5633 14.8752 31.4979L15.2211 30.8436C15.2584 30.7735 15.2397 30.7267 15.1743 30.6893L13.4404 29.7733L13.861 28.9741L15.9688 29.1844C15.9969 29.1891 16.0296 29.1844 16.0623 29.1704ZM13.0945 27.9132C13.1132 27.9225 13.1319 27.9599 13.1319 27.9599L13.1366 27.9646L13.1927 28.1375C13.202 28.1609 13.188 28.1983 13.188 28.1983L12.5944 29.3246L11.1596 28.5675L11.7532 27.4411C11.7578 27.4318 11.7719 27.4177 11.7999 27.4037L11.9775 27.343C11.9915 27.3336 12.0196 27.343 12.0196 27.343L13.0945 27.9132Z" fill="white"/>
<path fill-rule="evenodd" clip-rule="evenodd" d="M13.828 33.7694C13.8607 33.8395 13.8561 33.9329 13.814 34.0545L13.1457 35.9847C13.1457 35.9847 13.127 36.0221 13.1083 36.0548C13.0896 36.0875 13.0569 36.1109 13.0101 36.1343L12.4259 36.4194C12.3792 36.4427 12.3371 36.4521 12.2997 36.4474C12.2659 36.4474 12.2435 36.4397 12.2292 36.4348L12.2249 36.4334L8.27567 35.0687C8.27567 35.0687 8.22893 35.05 8.20089 35.0313C8.17285 35.0126 8.14481 34.9799 8.12144 34.9331L7.84569 34.3489C7.82699 34.3068 7.81765 34.2741 7.81297 34.2414C7.81297 34.2087 7.82232 34.1713 7.83634 34.1246L8.51403 32.1569C8.52338 32.1242 8.54207 32.0962 8.56544 32.0635C8.58881 32.0307 8.62152 32.0074 8.65891 31.984L9.23378 31.7036C9.2665 31.6849 9.30388 31.6755 9.34127 31.6709C9.37866 31.6709 9.42073 31.6709 9.45812 31.6849L13.37 33.0356C13.4214 33.0543 13.4588 33.073 13.4822 33.101C13.5055 33.1244 13.5242 33.1571 13.5429 33.1898L13.828 33.7647V33.7694ZM12.7344 33.8675C12.7344 33.8675 12.711 33.8348 12.6876 33.8254L9.55626 32.7411H9.5329C9.52355 32.7411 9.50953 32.7411 9.49551 32.7505L9.32725 32.8393C9.32725 32.8393 9.29454 32.8627 9.28986 32.8767L8.8926 34.0264C8.8926 34.0264 8.88793 34.0685 8.8926 34.0872L8.96738 34.2601C8.96738 34.2601 8.99075 34.2928 9.01411 34.3022L12.1455 35.3865C12.1455 35.3865 12.1876 35.3911 12.2063 35.3865L12.3511 35.3164L12.7998 34.0217L12.7297 33.8769L12.7344 33.8675Z" fill="white"/>
<path d="M12.0941 40.4058C12.0848 40.4619 12.0427 40.4853 11.968 40.4713L9.5236 40.0179L6.3782 41.0695C6.34081 41.0835 6.31277 41.0695 6.29408 41.0368C6.27538 40.9994 6.26603 40.9667 6.27071 40.934L6.42026 40.1348C6.42494 40.102 6.44363 40.074 6.47168 40.0553C6.49972 40.0319 6.52776 40.0179 6.56048 40.0039L8.73375 39.3823L6.92502 38.0222C6.92502 38.0222 6.87829 37.9755 6.85959 37.9428C6.8409 37.9101 6.83623 37.882 6.8409 37.8493L6.99046 37.0501C6.99513 37.0174 7.01383 36.9893 7.04654 36.9613C7.07926 36.9333 7.1073 36.9333 7.13534 36.9613L9.69653 39.0691L12.1409 39.5225C12.2157 39.5365 12.2484 39.5739 12.2344 39.6393L12.0941 40.4105V40.4058Z" fill="white"/>
<path d="M54.5555 12.5132C54.5789 12.5459 54.607 12.5599 54.6397 12.5693L54.6443 12.5599L55.4622 12.7422C55.537 12.7609 55.5838 12.7328 55.5978 12.6581L56.7569 7.38144C56.7756 7.30666 56.7475 7.25993 56.6727 7.2459L55.9483 7.087C55.8735 7.0683 55.8268 7.09635 55.8128 7.17113L55.0697 10.5502V10.3212L54.5415 6.89538C54.5322 6.81592 54.4995 6.76919 54.4481 6.75984L53.4853 6.54952C53.4105 6.53083 53.3684 6.55887 53.3497 6.63365L52.1907 11.9103C52.172 11.985 52.2 12.0271 52.2748 12.0458L52.9992 12.2047C53.074 12.2234 53.1207 12.1954 53.1347 12.1206L53.8825 8.71812L54.5135 12.4244C54.5182 12.4524 54.5322 12.4851 54.5555 12.5132Z" fill="white"/>
<path fill-rule="evenodd" clip-rule="evenodd" d="M59.8405 14.1818C59.7704 14.2145 59.6769 14.2052 59.5554 14.1584L57.6438 13.4387C57.6438 13.4387 57.6065 13.42 57.5784 13.4013C57.5504 13.3826 57.5223 13.3452 57.499 13.2985L57.2326 12.7049C57.2092 12.6582 57.1998 12.6161 57.2045 12.5787C57.2092 12.5413 57.2139 12.518 57.2185 12.5039L58.6908 8.59204C58.6908 8.59204 58.7095 8.54531 58.7328 8.51726C58.7515 8.48922 58.7889 8.46118 58.8356 8.43781L59.4245 8.17608C59.4666 8.15739 59.504 8.14804 59.532 8.14804C59.5647 8.14804 59.6021 8.15739 59.6489 8.17608L61.5978 8.90985C61.6258 8.9192 61.6586 8.9379 61.6913 8.96127C61.724 8.98463 61.7474 9.01735 61.7661 9.05941L62.0278 9.63895C62.0418 9.67167 62.0512 9.70906 62.0558 9.74645C62.0605 9.78384 62.0558 9.8259 62.0371 9.86329L60.5789 13.7331C60.5602 13.7845 60.5369 13.8219 60.5135 13.8406C60.4901 13.864 60.4574 13.8827 60.4247 13.8967L59.8405 14.1678V14.1818ZM59.7704 13.0881C59.7704 13.0881 59.8031 13.0648 59.8125 13.0414L60.9809 9.93807V9.9147C60.9809 9.90535 60.9809 9.89133 60.9715 9.87731L60.8874 9.70906C60.8874 9.70906 60.864 9.67634 60.85 9.67167L59.7096 9.24169C59.7096 9.24169 59.6676 9.23701 59.6489 9.24169L59.4759 9.31179C59.4759 9.31179 59.4432 9.33516 59.4339 9.35386L58.2655 12.4572C58.2655 12.4572 58.2608 12.4993 58.2655 12.518L58.3309 12.6628L59.6161 13.1442L59.761 13.0788L59.7704 13.0881Z" fill="white"/>
<path fill-rule="evenodd" clip-rule="evenodd" d="M64.0417 16.3457C64.0557 16.3784 64.0744 16.4065 64.1025 16.4205H64.0978L64.7708 16.7897C64.8175 16.8131 64.8503 16.8178 64.8736 16.7991C64.897 16.7804 64.9157 16.757 64.9157 16.729L65.1681 14.5791L65.813 14.3921C65.8925 14.3687 65.9579 14.3127 66.0047 14.2285L66.9908 12.4338C67.0002 12.4151 67.0095 12.3964 67.0142 12.3731C67.0329 12.317 67.0329 12.2609 67.0142 12.2048L66.8366 11.5926C66.8272 11.5552 66.8132 11.5271 66.7945 11.5084L66.7431 11.457C66.7291 11.443 66.6917 11.4196 66.6917 11.4196L64.4436 10.1858C64.3782 10.1531 64.3268 10.1671 64.2894 10.2325L61.6862 14.967C61.6534 15.0324 61.6675 15.0838 61.7329 15.1212L62.3825 15.4764C62.448 15.5091 62.4994 15.4951 62.5368 15.4297L63.4809 13.7144L64.2707 14.1491L64.0277 16.2522C64.0277 16.2803 64.0277 16.313 64.0417 16.3457ZM65.3503 13.3966C65.341 13.4153 65.3036 13.434 65.3036 13.434V13.4387L65.1307 13.4901C65.1073 13.4994 65.0699 13.4854 65.0699 13.4854L63.9529 12.8732L64.7334 11.4523L65.8504 12.0646C65.8598 12.0693 65.8738 12.0833 65.8878 12.1113L65.9439 12.2889C65.9486 12.303 65.9392 12.331 65.9392 12.331L65.3503 13.3966Z" fill="white"/>
<path d="M66.6978 18.1358C66.6978 18.1358 66.6651 18.0984 66.6604 18.0704C66.6604 18.0424 66.6604 18.019 66.6791 18.0003L69.3945 14.3314L68.4878 13.6584C68.427 13.6117 68.4177 13.5603 68.4644 13.4995L68.9038 12.9013C68.9505 12.8405 69.0019 12.8312 69.0627 12.8779L71.6612 14.7988C71.6612 14.7988 71.6986 14.8409 71.7033 14.8689C71.708 14.9016 71.7033 14.9297 71.6846 14.9577L71.2453 15.5559C71.2266 15.584 71.1985 15.598 71.1705 15.598C71.1378 15.598 71.1097 15.598 71.0911 15.5793L70.175 14.9016L67.4596 18.5705C67.4222 18.6219 67.3801 18.6312 67.3287 18.5939L66.6978 18.1265V18.1358Z" fill="white"/>
<path d="M71.2907 21.9353C71.2346 21.9867 71.2346 22.0428 71.2907 22.0942L71.8235 22.613C71.8749 22.6691 71.931 22.6691 71.9824 22.613L75.7541 18.7432C75.8102 18.6918 75.8102 18.6357 75.7541 18.5843L75.2213 18.0655C75.1699 18.0094 75.1138 18.0094 75.0624 18.0655L73.5154 19.6546L72.3376 18.5048L73.8846 16.9158C73.9407 16.8644 73.9407 16.8083 73.8846 16.7569L73.3518 16.2381C73.3004 16.182 73.2443 16.182 73.1929 16.2381L69.4212 20.1079C69.3651 20.1593 69.3651 20.2154 69.4212 20.2668L69.954 20.7856C70.0054 20.8417 70.0615 20.8417 70.1129 20.7856L71.6599 19.1965L72.8377 20.3463L71.2907 21.9353Z" fill="white"/>
<path d="M74.123 25.3661C74.0809 25.3053 74.0902 25.2539 74.151 25.2072L78.5817 22.1132C78.6424 22.0711 78.6938 22.0805 78.7406 22.1412L80.4184 24.5388C80.4605 24.5996 80.4512 24.651 80.3904 24.6977L79.7828 25.123C79.7828 25.123 79.7314 25.1464 79.7034 25.1417C79.6706 25.1417 79.6473 25.123 79.6286 25.095L78.4415 23.3985L77.3244 24.179L78.2639 25.5203C78.2639 25.5203 78.2872 25.5717 78.2826 25.5998C78.2826 25.6325 78.2639 25.6558 78.2358 25.6745L77.6282 26.0999C77.6002 26.1185 77.5722 26.1232 77.5394 26.1185C77.5067 26.1092 77.4834 26.0952 77.4693 26.0765L76.5299 24.7351L75.4129 25.5156L76.6 27.2122C76.6421 27.273 76.6327 27.3244 76.572 27.3711L75.9644 27.7964C75.9036 27.8385 75.8522 27.8291 75.8055 27.7684L74.1276 25.3708L74.123 25.3661Z" fill="white"/>
<path fill-rule="evenodd" clip-rule="evenodd" d="M77.9702 31.6894C77.9609 31.7268 77.9655 31.7595 77.9795 31.7876L78.2974 32.4139C78.3161 32.4419 78.3394 32.4606 78.3721 32.4746C78.4049 32.484 78.4329 32.4793 78.4563 32.4559L82.5458 28.5861C82.6018 28.53 82.6159 28.4739 82.5925 28.4272L82.1578 27.5813C82.1438 27.5532 82.1204 27.5345 82.0877 27.5345H81.9989L76.4653 28.5627C76.4325 28.5674 76.4139 28.5908 76.4045 28.6282C76.3952 28.6656 76.3998 28.6983 76.4139 28.7263L76.7317 29.3526C76.7457 29.3806 76.7737 29.404 76.8064 29.418C76.8392 29.432 76.8765 29.4367 76.9093 29.432L78.0169 29.2217L78.8348 30.8248L78.0169 31.596C77.9936 31.6193 77.9795 31.652 77.9702 31.6894ZM81.1285 28.6386L79.0265 29.0348L79.578 30.1191L81.1285 28.6386Z" fill="white"/>
<path d="M79.7879 36.3585C79.7459 36.3398 79.7132 36.3118 79.6945 36.2791C79.6711 36.2464 79.6571 36.2136 79.6477 36.1856L78.9794 34.2133C78.9607 34.1572 78.9513 34.1152 78.9607 34.0871C78.9654 34.0591 78.9794 34.0264 78.9981 33.9843L79.2785 33.4048C79.3019 33.358 79.3252 33.3253 79.3533 33.3066C79.3734 33.2905 79.3969 33.2814 79.4179 33.2732L79.4281 33.2692L80.2086 33.0075C80.2319 32.9981 80.26 33.0028 80.2927 33.0122C80.3207 33.0262 80.3441 33.0449 80.3534 33.0776L80.5918 33.7786C80.6012 33.8114 80.6012 33.8394 80.5825 33.8675C80.5684 33.8955 80.5451 33.9142 80.5217 33.9235L79.9702 34.1105L80.4329 35.4799C80.4329 35.4799 80.4469 35.4986 80.4703 35.5079L80.6385 35.5967C80.6385 35.5967 80.6759 35.6107 80.6993 35.6014L81.592 35.2976C81.592 35.2976 81.6294 35.2789 81.6387 35.2555L81.7182 35.092C81.7182 35.092 81.7275 35.0499 81.7228 35.0312L81.1854 33.4421C81.1854 33.4421 81.176 33.4001 81.176 33.3627C81.176 33.3253 81.1854 33.2832 81.2087 33.2365L81.4892 32.657C81.5079 32.6149 81.5359 32.5869 81.5639 32.5635C81.592 32.5401 81.6247 32.5261 81.6527 32.5168L83.3727 31.9372C83.396 31.9279 83.4287 31.9232 83.4708 31.9232C83.5082 31.9232 83.5549 31.9325 83.6017 31.9559L84.1719 32.241L84.1929 32.2528C84.2167 32.2661 84.2378 32.2778 84.256 32.2924C84.2747 32.3111 84.2981 32.3532 84.3167 32.4139L84.9851 34.3862C84.9944 34.4189 84.9991 34.4517 84.9991 34.4937C84.9991 34.5358 84.9898 34.5732 84.9757 34.6106L84.6907 35.1808C84.6579 35.2368 84.6299 35.2742 84.6065 35.2929C84.5832 35.3116 84.5551 35.3256 84.5224 35.335L83.7185 35.6061C83.6484 35.6294 83.6017 35.6061 83.5736 35.536L83.3353 34.8349C83.3119 34.7648 83.3353 34.7181 83.4054 34.69L83.9943 34.4891L83.5409 33.143C83.5409 33.143 83.5175 33.1056 83.4989 33.0916L83.3306 33.0028C83.3306 33.0028 83.2932 32.9888 83.2698 32.9981L82.3818 33.2973C82.3818 33.2973 82.3444 33.316 82.3351 33.3393L82.251 33.5122C82.251 33.5122 82.2416 33.5543 82.251 33.5824L82.7744 35.134C82.8025 35.2135 82.7978 35.2883 82.7651 35.3584L82.48 35.9286C82.4379 36.0033 82.3818 36.0547 82.3117 36.0781L80.6012 36.6576C80.5264 36.6857 80.4469 36.6763 80.3721 36.639L79.7926 36.3585H79.7879Z" fill="white"/>
<path d="M80.4332 39.2001C80.4192 39.2235 80.4145 39.2468 80.4192 39.2749V39.2702L80.5688 40.0367C80.5781 40.0974 80.6155 40.1208 80.6809 40.1068L85.1584 39.2328L85.378 40.3498C85.3827 40.3779 85.3967 40.4012 85.4248 40.4199C85.4481 40.4386 85.4762 40.4433 85.5089 40.4386L86.238 40.2984C86.266 40.2937 86.2894 40.2751 86.3081 40.247C86.3268 40.219 86.3315 40.1956 86.3268 40.1676L85.7052 36.9941C85.6912 36.9193 85.6491 36.8913 85.5743 36.9053L84.8452 37.0455C84.7704 37.0595 84.7424 37.1016 84.7564 37.1764L84.9714 38.284L80.494 39.158C80.4706 39.1627 80.4473 39.1767 80.4332 39.2001Z" fill="white"/>
<path fill-rule="evenodd" clip-rule="evenodd" d="M6.3701 51.9359C6.35608 51.8611 6.38879 51.8191 6.46357 51.805L11.7822 50.8563C11.857 50.8423 11.8991 50.875 11.9131 50.9498L12.3665 53.4736L12.3672 53.4798C12.3716 53.5146 12.3755 53.5458 12.3711 53.5811C12.3711 53.6138 12.3524 53.6512 12.3197 53.6979L11.9552 54.2214C11.9131 54.2728 11.8804 54.3055 11.8477 54.3195C11.815 54.3335 11.7869 54.3429 11.7682 54.3475L9.72582 54.7121C9.64636 54.7261 9.57158 54.7121 9.50615 54.6607L8.9827 54.2961C8.94998 54.2728 8.92661 54.2494 8.90325 54.2214C8.87988 54.1933 8.86586 54.1559 8.85651 54.1045L8.55739 52.422L6.6365 52.7632C6.56172 52.7772 6.51966 52.7445 6.50564 52.6744L6.37477 51.9453L6.3701 51.9359ZM9.92211 53.6605C9.92211 53.6605 9.94548 53.6745 9.95483 53.6699L11.1793 53.4502C11.1793 53.4502 11.2074 53.4408 11.2167 53.4268L11.3242 53.2586C11.3242 53.2586 11.3336 53.2305 11.3336 53.2165L11.1092 51.9546L9.5155 52.2397L9.73984 53.5016C9.73984 53.5016 9.75386 53.539 9.76321 53.5483L9.92211 53.6605Z" fill="white"/>
<path fill-rule="evenodd" clip-rule="evenodd" d="M8.35645 59.9466C8.39851 60.0681 8.44993 60.1475 8.52003 60.1803L8.52938 60.1896L9.10892 60.4747L9.12664 60.4814C9.15685 60.493 9.18429 60.5035 9.21174 60.5074C9.24445 60.5121 9.28652 60.5074 9.33793 60.4887L13.2638 59.1894C13.3059 59.1754 13.3386 59.1567 13.3667 59.1287C13.3947 59.1053 13.4134 59.0726 13.4321 59.0399L13.7172 58.4697C13.7359 58.4276 13.7452 58.3856 13.7452 58.3482C13.7406 58.3108 13.7359 58.2781 13.7265 58.2453L13.0722 56.2684C13.0582 56.2216 13.0395 56.1842 13.0208 56.1609C13.0021 56.1375 12.9741 56.1141 12.932 56.0954L12.3571 55.801C12.3057 55.7776 12.2683 55.7683 12.231 55.7683C12.1936 55.773 12.1468 55.7823 12.1468 55.7823L8.17885 57.0956C8.16557 57.0989 8.1523 57.107 8.134 57.118L8.12148 57.1256L8.10875 57.133C8.07603 57.1517 8.04799 57.1844 8.02462 57.2311L7.73485 57.8107C7.70681 57.8574 7.70213 57.8995 7.70213 57.9369C7.70681 57.9696 7.71615 58.0117 7.71615 58.0117L8.35645 59.9466ZM9.38934 59.4418C9.37064 59.4512 9.32858 59.4371 9.32858 59.4371L9.33326 59.4465L9.18837 59.3764L8.75839 58.0771L8.8285 57.9322C8.83784 57.9088 8.87523 57.8901 8.87523 57.8901L12.0206 56.8479C12.0393 56.8386 12.0814 56.8526 12.0814 56.8526L12.245 56.9414C12.2683 56.9507 12.287 56.9881 12.287 56.9881L12.6703 58.1425C12.675 58.1565 12.6609 58.1939 12.6609 58.1939L12.5815 58.3622C12.5768 58.3762 12.5675 58.3856 12.5581 58.3902C12.5488 58.3949 12.5347 58.3996 12.5347 58.3996L9.38934 59.4418Z" fill="white"/>
<path d="M10.9179 65.6534C10.8899 65.602 10.9039 65.5459 10.9646 65.4945L12.7921 63.5829L10.1748 63.9615C10.1 63.9755 10.0486 63.9615 10.0206 63.9148L9.65601 63.2044C9.64199 63.181 9.64199 63.1529 9.65601 63.1249C9.67003 63.0969 9.68405 63.0735 9.70742 63.0595L14.3157 60.2038C14.3811 60.1711 14.4325 60.1851 14.4699 60.2506L14.8111 60.9096C14.8438 60.975 14.8298 61.0264 14.7644 61.0638L11.8433 62.8211L13.6287 62.6248C13.7081 62.6155 13.7642 62.6388 13.7969 62.7043L14.0914 63.2791C14.1241 63.3446 14.1147 63.41 14.0633 63.4661L12.8668 64.8074L15.9936 63.4474C16.059 63.4147 16.1104 63.4287 16.1478 63.4941L16.489 64.1531C16.503 64.1765 16.503 64.2045 16.4936 64.2372C16.4843 64.27 16.4656 64.2933 16.4376 64.3074L11.4367 66.3965C11.4133 66.4105 11.3853 66.4105 11.3572 66.4058C11.3292 66.4012 11.3058 66.3825 11.2918 66.3544L10.9319 65.6534H10.9179Z" fill="white"/>
<path d="M12.797 68.5696C12.7315 68.6164 12.7269 68.6678 12.7689 68.7285V68.7332L14.4795 71.1121C14.5262 71.1776 14.5776 71.1822 14.6384 71.1402L15.2413 70.7055C15.3067 70.6588 15.3114 70.6074 15.2693 70.5466L14.0589 68.8641L15.1665 68.0696L16.12 69.3969C16.134 69.4156 16.1573 69.4296 16.1901 69.439C16.2228 69.4436 16.2508 69.4389 16.2789 69.4203L16.8818 68.9856C16.9051 68.9669 16.9238 68.9435 16.9238 68.9108C16.9285 68.8781 16.9051 68.8314 16.9051 68.8314L15.9517 67.504L17.0594 66.7095L18.2699 68.392C18.2886 68.4154 18.3119 68.4341 18.3446 68.4341C18.3774 68.4388 18.4241 68.4154 18.4241 68.4154L19.027 67.9808C19.0924 67.934 19.0971 67.8826 19.055 67.8218L17.3445 65.4429C17.2977 65.3775 17.2463 65.3728 17.1856 65.4149L12.797 68.5696Z" fill="white"/>
<path fill-rule="evenodd" clip-rule="evenodd" d="M17.8354 74.8558C17.8354 74.8558 17.8027 74.8044 17.7981 74.767C17.7981 74.7296 17.7981 74.7016 17.8121 74.6735L18.658 72.7339L18.0271 72.0843L16.6203 73.449C16.5642 73.5004 16.5128 73.5004 16.4614 73.449L15.9426 72.9162C15.8912 72.8601 15.8912 72.8087 15.9426 72.7573L19.8171 68.9903C19.8732 68.9389 19.9246 68.9389 19.976 68.9903L21.7614 70.8271C21.7614 70.8271 21.7894 70.8598 21.7987 70.8785C21.8017 70.8844 21.8051 70.8908 21.8087 70.8975C21.8165 70.912 21.8251 70.928 21.8315 70.9439C21.8408 70.9673 21.8455 70.9953 21.8455 71.0374L21.8361 71.6777C21.8361 71.7384 21.8174 71.7899 21.7894 71.8366L21.7839 71.8442L21.7787 71.8517C21.7696 71.8651 21.761 71.8778 21.7473 71.888L20.2798 73.3182C20.2097 73.3836 20.1349 73.421 20.0508 73.4163L19.3778 73.407L18.5038 75.3933C18.4944 75.4213 18.4711 75.4353 18.443 75.4447C18.415 75.454 18.3823 75.4447 18.3496 75.4073L17.8167 74.8558H17.8354ZM19.8545 72.3507C19.8545 72.3507 19.8965 72.346 19.9106 72.3273L20.7846 71.4767C20.7846 71.4767 20.8032 71.4534 20.8032 71.4393V71.2524C20.7939 71.2197 20.7846 71.201 20.7799 71.1963L19.8919 70.2849L18.7281 71.416L19.6161 72.3273C19.6161 72.3273 19.6488 72.3507 19.6722 72.3507H19.8545Z" fill="white"/>
<path d="M19.9233 76.6974C19.8765 76.7582 19.8812 76.8096 19.942 76.8563L19.9466 76.8516L22.4658 78.88C22.5265 78.9268 22.5779 78.9221 22.6247 78.8613L23.092 78.2818C23.1388 78.221 23.1341 78.1696 23.0733 78.1229L21.2179 76.632L24.0782 73.0753C24.0922 73.0566 24.1016 73.0285 24.0922 73.0005C24.0829 72.9725 24.0502 72.9304 24.0502 72.9304L23.4706 72.4677C23.4472 72.449 23.4239 72.4397 23.3912 72.4397C23.3631 72.4397 23.3211 72.4724 23.3211 72.4724L19.9233 76.6974Z" fill="white"/>
<path d="M24.256 80.0811C24.1905 80.039 24.1812 79.9876 24.2232 79.9269L27.1443 75.3793C27.1864 75.3139 27.2378 75.3046 27.2985 75.3466L27.9248 75.7486C27.9902 75.7906 27.9996 75.842 27.9575 75.9028L25.0365 80.4503C24.9944 80.5158 24.943 80.5251 24.8822 80.483L24.256 80.0811Z" fill="white"/>
<path d="M26.9022 81.5766C26.8695 81.642 26.8882 81.6934 26.9536 81.7261H26.949L27.6126 82.0626C27.6781 82.0954 27.7295 82.0767 27.7622 82.0112L28.7624 80.0296L30.2299 80.7727C30.2953 80.8054 30.3467 80.7867 30.3795 80.7213L30.716 80.0576C30.7487 79.9922 30.73 79.9408 30.6646 79.9081L29.197 79.1649L29.8093 77.9498L31.6834 78.8939C31.7068 78.9079 31.7302 78.9079 31.7582 78.8892C31.7862 78.8705 31.8143 78.8331 31.8143 78.8331L32.1508 78.1694C32.1835 78.104 32.1648 78.0526 32.0994 78.0199L29.4868 76.7019C29.4214 76.6692 29.3699 76.6879 29.3372 76.7533L26.9022 81.5766Z" fill="white"/>
<path d="M32.5702 84.2408C32.5469 84.2315 32.5282 84.2175 32.5142 84.1894C32.5001 84.1614 32.5001 84.1427 32.5142 84.1146L34.0284 79.8102L32.9628 79.4363C32.8927 79.4129 32.8694 79.3615 32.8927 79.2914L33.1404 78.5903C33.1638 78.5202 33.2152 78.4968 33.2853 78.5202L36.3373 79.5905C36.3606 79.5998 36.384 79.6185 36.398 79.6466C36.412 79.6746 36.4167 79.7027 36.4074 79.7354L36.1597 80.4364C36.1503 80.4645 36.1269 80.4878 36.0989 80.5019C36.0709 80.5159 36.0428 80.5159 36.0148 80.5065L34.9398 80.128L33.4255 84.4324C33.4022 84.4932 33.3648 84.5119 33.3087 84.4932L32.5702 84.2362V84.2408Z" fill="white"/>
<path d="M36.4594 85.3157C36.4408 85.3905 36.4688 85.4326 36.5436 85.4513L37.2633 85.6242C37.3381 85.6429 37.3802 85.6148 37.3989 85.5401L38.6561 80.2868C38.6748 80.212 38.6467 80.17 38.572 80.1513L37.8522 79.9784C37.7774 79.9597 37.7354 79.9877 37.7167 80.0625L36.4594 85.3157Z" fill="white"/>
<path d="M42.0532 86.4326C42.0205 86.4326 41.9925 86.4139 41.9644 86.3859C41.9364 86.3578 41.9224 86.3298 41.913 86.3017L40.9503 82.6703L40.5156 86.1288C40.5062 86.2036 40.4642 86.2363 40.3894 86.227L39.651 86.1335C39.5762 86.1241 39.5435 86.0821 39.5528 86.0073L40.2258 80.6465C40.2352 80.5718 40.2772 80.5391 40.352 80.5484L41.3288 80.6699C41.3802 80.6746 41.4176 80.7213 41.4363 80.7961L42.2729 84.1612L42.2916 84.3902L42.7216 80.9597C42.7309 80.8849 42.773 80.8522 42.8478 80.8615L43.5815 80.955C43.6563 80.9644 43.689 81.0064 43.6797 81.0812L43.0067 86.4419C42.9973 86.5167 42.9553 86.5494 42.8805 86.5401L42.0486 86.4373L42.0532 86.4326Z" fill="white"/>
<path d="M48.2413 86.6101C48.2647 86.6008 48.288 86.5774 48.3208 86.54V86.554L48.7648 86.0867C48.7881 86.0586 48.8115 86.0306 48.8255 86.0072C48.8395 85.9838 48.8489 85.9371 48.8489 85.9371L48.8068 83.7031C48.8021 83.6283 48.7648 83.5909 48.69 83.5909L47.0869 83.6189C47.0121 83.6236 46.9747 83.661 46.9747 83.7358L46.9887 84.4789C46.9934 84.5537 47.0308 84.5911 47.1056 84.5911L47.8534 84.5771L47.8721 85.5024C47.8721 85.5211 47.8487 85.5585 47.8487 85.5585L47.7365 85.6754L46.3671 85.6987L46.2503 85.5866C46.2363 85.5726 46.2269 85.5305 46.2269 85.5305L46.1662 82.2168C46.1662 82.1981 46.1895 82.1608 46.1895 82.1608L46.3251 82.0299C46.3438 82.0159 46.3625 82.0065 46.3905 82.0065L47.5823 81.9832C47.6103 81.9832 47.6477 82.0065 47.6477 82.0065L47.7879 82.1327C47.802 82.1421 47.8113 82.1608 47.8113 82.1888L47.8207 82.6141C47.8253 82.6889 47.8627 82.7263 47.9375 82.7263L48.6806 82.7122C48.7554 82.7076 48.7928 82.6702 48.7928 82.5954L48.7788 81.7308C48.7788 81.6747 48.7694 81.6373 48.7554 81.6093C48.7414 81.5812 48.718 81.5532 48.6853 81.5205L48.2273 81.0765C48.1852 81.0344 48.1432 81.011 48.1104 81.0063C48.073 81.0017 48.045 81.0017 48.017 81.0017L45.9372 81.0391C45.8811 81.0391 45.8437 81.0484 45.8156 81.0578C45.7876 81.0671 45.7596 81.0905 45.7268 81.1232L45.2735 81.5812C45.2221 81.6373 45.1987 81.7074 45.1987 81.7915L45.2735 85.9511C45.2735 85.9651 45.2782 85.9932 45.2875 86.0259C45.2969 86.0586 45.3202 86.096 45.3576 86.1334L45.825 86.5868C45.8671 86.6241 45.9044 86.6428 45.9372 86.6522C45.9699 86.6615 46.0119 86.6615 46.0119 86.6615L48.1712 86.6241C48.1946 86.6241 48.2179 86.6195 48.2413 86.6101Z" fill="white"/>
<path d="M54.3641 85.8718C54.2893 85.8905 54.2473 85.8624 54.2286 85.7877L52.9807 80.5297C52.962 80.455 52.99 80.4129 53.0648 80.3942L55.9111 79.7165C55.9859 79.6978 56.0279 79.7259 56.0466 79.8006L56.2196 80.5251C56.2196 80.5251 56.2196 80.5718 56.2149 80.5998C56.2055 80.6279 56.1869 80.6466 56.1635 80.6559L54.1211 81.142L54.4342 82.4693L56.0373 82.0908C56.1121 82.0721 56.1541 82.1001 56.1728 82.1749L56.3458 82.8946C56.3645 82.9694 56.3364 83.0115 56.2616 83.0302L54.6586 83.4087L55.1727 85.568C55.1914 85.6428 55.1633 85.6848 55.0885 85.7035L54.3641 85.8765V85.8718Z" fill="white"/>
<path d="M59.2434 84.4462C59.2715 84.5163 59.3182 84.5397 59.3883 84.5116L59.3837 84.5023L62.1224 83.4647C62.1926 83.4367 62.2159 83.3899 62.1879 83.3198L61.9262 82.6281C61.8981 82.558 61.8514 82.5347 61.7813 82.5627L59.8417 83.2965L59.3603 82.0206L60.8933 81.441C60.9166 81.4317 60.94 81.413 60.954 81.3849C60.968 81.3569 60.968 81.3242 60.9587 81.2961L60.697 80.6044C60.6876 80.5764 60.6643 80.553 60.6362 80.5437C60.6035 80.5343 60.5754 80.5343 60.5521 80.5437L59.0191 81.1232L58.5377 79.8473L60.4773 79.1135C60.5053 79.1042 60.5287 79.0855 60.5381 79.0527C60.5474 79.02 60.5474 78.992 60.5381 78.9686L60.2763 78.2769C60.2483 78.2068 60.2016 78.1834 60.1315 78.2115L57.3927 79.2491C57.3226 79.2771 57.2992 79.3238 57.3272 79.3939L59.2434 84.4462Z" fill="white"/>
<path fill-rule="evenodd" clip-rule="evenodd" d="M66.6188 81.1138C66.6048 81.1652 66.5814 81.2026 66.558 81.226C66.53 81.2494 66.4926 81.2774 66.4412 81.3054L64.2258 82.5159C64.1604 82.5533 64.109 82.5393 64.0716 82.4692L61.4871 77.7254C61.4497 77.6599 61.4684 77.6085 61.5338 77.5711L63.7865 76.342C63.8146 76.3279 63.8426 76.3139 63.8753 76.3046C63.908 76.2952 63.9501 76.2952 64.0109 76.3139L64.6231 76.4962C64.6885 76.5149 64.7306 76.5383 64.7493 76.5616C64.768 76.585 64.7867 76.6084 64.8007 76.6411L66.787 80.2819C66.8057 80.3193 66.8151 80.3567 66.8151 80.3941C66.8151 80.4315 66.8151 80.4688 66.8057 80.5016L66.6281 81.1232L66.6188 81.1138ZM65.7355 80.4548C65.7355 80.4548 65.7448 80.4174 65.7308 80.3941L64.1464 77.4823C64.1464 77.4823 64.1184 77.4496 64.0997 77.445L63.9267 77.3935C63.9267 77.3935 63.9111 77.3935 63.8946 77.3946C63.8841 77.3953 63.8733 77.3964 63.866 77.3982L62.749 78.0058L64.5156 81.2494L65.6981 80.6044L65.7448 80.4501L65.7355 80.4548Z" fill="white"/>
<path d="M68.9691 79.5996C69.0158 79.6603 69.0673 79.6697 69.128 79.6229H69.1233L71.4789 77.8843C71.5396 77.8376 71.549 77.7862 71.5023 77.7254L71.0629 77.1272C71.0162 77.0664 70.9648 77.0571 70.904 77.1038L69.2355 78.333L68.427 77.2347L69.7449 76.2625C69.7683 76.2485 69.7823 76.2251 69.787 76.1924C69.7917 76.1597 69.787 76.1317 69.7683 76.1036L69.329 75.5054C69.3103 75.482 69.2869 75.4633 69.2542 75.4633C69.2215 75.4587 69.1747 75.482 69.1747 75.482L67.8568 76.4542L67.0482 75.3558L68.7167 74.1267C68.7401 74.108 68.7588 74.0846 68.7588 74.0519C68.7635 74.0192 68.7401 73.9724 68.7401 73.9724L68.3008 73.3742C68.254 73.3134 68.2026 73.3041 68.1419 73.3508L65.7863 75.0894C65.7255 75.1362 65.7162 75.1876 65.7629 75.2483L68.9691 79.5996Z" fill="white"/>
<path fill-rule="evenodd" clip-rule="evenodd" d="M75.1814 74.5147C75.1814 74.5147 75.13 74.5475 75.0926 74.5521C75.0552 74.5521 75.0272 74.5521 74.9991 74.5381L73.0595 73.6875L72.4099 74.3184L73.7746 75.7252C73.826 75.7813 73.826 75.8327 73.7746 75.8841L73.2418 76.4029C73.1857 76.4543 73.1343 76.4543 73.0829 76.4029L69.3159 72.5284C69.2645 72.4723 69.2645 72.4209 69.3159 72.3695L71.1527 70.5795C71.1527 70.5795 71.1854 70.5514 71.2041 70.5421L71.2161 70.5358L71.2289 70.529C71.2417 70.5221 71.2556 70.5149 71.2695 70.5094C71.2929 70.5 71.3209 70.4907 71.363 70.4954L72.0033 70.5047C72.064 70.5047 72.1154 70.5234 72.1622 70.5514C72.1809 70.5655 72.1996 70.5748 72.2136 70.5935L73.6437 72.0611C73.7092 72.1311 73.7466 72.2059 73.7419 72.2901L73.7325 72.9631L75.7142 73.8371C75.7422 73.8511 75.7562 73.8698 75.7656 73.8978C75.7749 73.9258 75.7656 73.9586 75.7282 73.9913L75.1814 74.5241V74.5147ZM72.6763 72.4957C72.6763 72.4957 72.6716 72.4536 72.6529 72.4396L71.8023 71.5656C71.8023 71.5656 71.7789 71.5469 71.7649 71.5469H71.578C71.5452 71.5563 71.5266 71.5656 71.5219 71.5703L70.6105 72.4583L71.7415 73.6221L72.6529 72.7341C72.6529 72.7341 72.6763 72.7013 72.6763 72.678V72.4957Z" fill="white"/>
<path fill-rule="evenodd" clip-rule="evenodd" d="M79.0047 69.9485C79.0421 69.9392 79.0701 69.9205 79.0888 69.8971L79.0935 69.9018L79.5235 69.3456C79.5422 69.3176 79.5468 69.2895 79.5468 69.2521C79.5468 69.2148 79.5281 69.1914 79.4954 69.182L74.2515 67.1303C74.1767 67.1069 74.1207 67.1163 74.0879 67.1583L73.5037 67.9108C73.4804 67.9388 73.4804 67.9669 73.4897 67.9949C73.4991 68.023 73.5131 68.051 73.5271 68.0744L76.8174 72.6406C76.8361 72.6686 76.8641 72.678 76.9015 72.6686C76.9389 72.6593 76.9669 72.6406 76.9856 72.6172L77.4156 72.061C77.4343 72.0377 77.4437 72.005 77.4437 71.9676C77.4437 71.9302 77.4343 71.8975 77.4156 71.8694L76.752 70.9581L77.8549 69.5372L78.9019 69.9485C78.9346 69.9579 78.9673 69.9579 79.0047 69.9485ZM76.1537 70.1215L74.8965 68.3828H74.9012L76.9015 69.1587L76.1537 70.1215Z" fill="white"/>
<path d="M80.8454 67.2005C80.8454 67.2005 80.8127 67.2379 80.7846 67.2473C80.7566 67.252 80.7332 67.2473 80.7099 67.2379L76.784 64.9104L76.2091 65.8826C76.1717 65.948 76.1203 65.962 76.0549 65.9199L75.4146 65.5414C75.3491 65.504 75.3351 65.4526 75.3772 65.3871L77.027 62.6063C77.027 62.6063 77.0644 62.5689 77.0924 62.5549C77.1251 62.5455 77.1532 62.5502 77.1812 62.5642L77.8215 62.9428C77.8496 62.9615 77.8682 62.9849 77.8729 63.0176C77.8776 63.0503 77.8729 63.0783 77.8636 63.1017L77.284 64.0785L81.21 66.406C81.266 66.4387 81.2801 66.4808 81.2473 66.5322L80.8501 67.2052L80.8454 67.2005Z" fill="white"/>
<path d="M82.659 63.5968C82.7291 63.6295 82.7758 63.6109 82.8086 63.5407L83.117 62.8677C83.1497 62.7976 83.1311 62.7509 83.0609 62.7182L78.1535 60.4608C78.0835 60.4281 78.0367 60.4468 78.004 60.5169L77.6955 61.1899C77.6628 61.26 77.6815 61.3067 77.7516 61.3394L82.659 63.5968Z" fill="white"/>
<path fill-rule="evenodd" clip-rule="evenodd" d="M84.9165 57.8483C84.9493 57.9184 84.9493 58.0118 84.9072 58.1333L84.2669 60.0683C84.2669 60.0683 84.2482 60.1056 84.2295 60.1384C84.2108 60.1711 84.1781 60.1945 84.1314 60.2225L83.5518 60.5123C83.5051 60.5356 83.463 60.545 83.4256 60.545C83.3882 60.545 83.3649 60.5356 83.3509 60.531L79.3876 59.2176C79.3876 59.2176 79.3408 59.199 79.3128 59.1803C79.2801 59.1616 79.2567 59.1288 79.2333 59.0821L78.9482 58.5026C78.9295 58.4605 78.9155 58.4278 78.9155 58.3951C78.9155 58.3624 78.9202 58.325 78.9389 58.2782L79.5932 56.3013C79.6008 56.2746 79.6146 56.251 79.6296 56.2255L79.6399 56.2078C79.6633 56.1751 79.6913 56.147 79.7334 56.1283L80.3036 55.8432C80.3363 55.8245 80.3737 55.8152 80.4111 55.8105C80.4485 55.8105 80.4905 55.8105 80.5279 55.8245L84.4538 57.1285C84.5053 57.1472 84.5426 57.1659 84.566 57.1893C84.5894 57.2126 84.6081 57.2453 84.6268 57.2781L84.9212 57.8529L84.9165 57.8483ZM83.8276 57.9604C83.8276 57.9604 83.8042 57.9277 83.7808 57.9184L80.6354 56.8761H80.6121C80.6078 56.8761 80.6025 56.8761 80.5967 56.877C80.5899 56.8781 80.5823 56.8804 80.5747 56.8855L80.4111 56.9743C80.4111 56.9743 80.3784 56.9976 80.3737 57.0117L79.9905 58.1661C79.9905 58.1661 79.9858 58.2081 79.9951 58.2268L80.0746 58.3997C80.0746 58.3997 80.1026 58.4325 80.1213 58.4418L83.2667 59.484C83.2667 59.484 83.2773 59.4852 83.2902 59.4852C83.303 59.4852 83.3182 59.484 83.3275 59.4794L83.4724 59.4093L83.9024 58.11L83.8322 57.9651L83.8276 57.9604Z" fill="white"/>
<path d="M86.1181 52.7165C86.1461 52.6931 86.1648 52.6651 86.1695 52.6324V52.6371L86.3143 51.8098C86.3237 51.735 86.2957 51.693 86.2209 51.6789L80.9022 50.7349C80.8274 50.7255 80.7854 50.7536 80.7713 50.8283L80.6405 51.5574C80.6311 51.6322 80.6592 51.6743 80.734 51.6883L84.1411 52.2912L83.9121 52.3006L80.5096 52.9642C80.4302 52.9782 80.3881 53.011 80.3787 53.0624L80.2058 54.0298C80.1965 54.1046 80.2245 54.1467 80.2993 54.1607L85.618 55.1048C85.6927 55.1141 85.7348 55.0861 85.7488 55.0113L85.8797 54.2822C85.889 54.2074 85.861 54.1654 85.7862 54.1513L82.3557 53.5438L86.0339 52.7632C86.062 52.7586 86.09 52.7399 86.1181 52.7165Z" fill="white"/>
<path fill-rule="evenodd" clip-rule="evenodd" d="M42.6422 50.0943C43.6377 51.0898 44.9603 51.6366 46.3671 51.6366L46.3718 51.6413C47.7786 51.6413 49.1012 51.0944 50.0967 50.0989C52.1532 48.0425 52.1532 44.7008 50.0967 42.6444C48.0403 40.5879 44.6986 40.5879 42.6422 42.6444C41.6467 43.6399 41.0999 44.9625 41.0999 46.3693C41.0999 47.7761 41.6467 49.0988 42.6422 50.0943ZM43.3526 43.3548C44.1845 42.5229 45.2735 42.1069 46.3671 42.1069C47.4608 42.1069 48.5497 42.5229 49.3817 43.3548C51.0455 45.0186 51.0455 47.72 49.3817 49.3839C48.5778 50.1877 47.5075 50.6317 46.3671 50.6317C45.2267 50.6317 44.1565 50.1877 43.3526 49.3839C42.5487 48.58 42.1047 47.5097 42.1047 46.3693C42.1047 45.2289 42.5207 44.1867 43.3526 43.3548Z" fill="white"/>
<path fill-rule="evenodd" clip-rule="evenodd" d="M53.9293 36.4675C54.3629 36.7992 54.7796 37.1632 55.176 37.5596C55.5718 37.9553 55.9353 38.3714 56.2665 38.8043L67.3702 27.8895L56.839 39.6182C59.477 43.7097 59.4777 49.0212 56.8408 53.1133L67.3702 64.8399L56.2667 53.9298C55.9354 54.3628 55.5718 54.7789 55.176 55.1748C54.7818 55.569 54.3656 55.9337 53.9302 56.2676L64.8422 67.3683L53.1177 56.8409C51.1241 58.1314 48.7986 58.8249 46.3707 58.8249L46.3661 58.8203C43.9352 58.8203 41.6116 58.1294 39.6193 56.8389L27.8926 67.3683L38.807 56.2651C38.3715 55.9307 37.9553 55.5653 37.5608 55.1701C37.1677 54.7762 36.804 54.3607 36.4708 53.9264L25.3684 64.8399L35.8973 53.1138C34.6051 51.1188 33.9106 48.7943 33.9106 46.3648C33.9106 43.9353 34.6027 41.6081 35.8955 39.6136L25.3684 27.8895L36.4673 38.8041C36.8013 38.3692 37.1662 37.9534 37.5608 37.5596C37.9568 37.1636 38.3731 36.7998 38.8064 36.4684L27.8926 25.3657L39.6203 35.8961C43.7119 33.2584 49.0235 33.2581 53.1153 35.8953L64.8422 25.3657L53.9293 36.4675ZM38.2712 38.27C40.5052 36.0406 43.4357 34.9236 46.3661 34.9236C49.2965 34.9236 52.2316 36.0406 54.4609 38.27C58.9243 42.7334 58.9243 49.9963 54.4609 54.4597C52.297 56.6189 49.4227 57.8107 46.3661 57.8107C43.3095 57.8107 40.4351 56.6236 38.2712 54.4597C36.112 52.2958 34.9202 49.4214 34.9202 46.3648C34.9202 43.3082 36.1073 40.4339 38.2712 38.27Z" fill="white"/>
<path fill-rule="evenodd" clip-rule="evenodd" d="M13.5584 79.1368C22.5974 88.1757 34.4732 92.6952 46.3491 92.6952L46.3444 92.6999C58.2203 92.6999 70.0962 88.1804 79.1352 79.1415C97.213 61.0589 97.213 31.6426 79.1352 13.56C61.0573 -4.51784 31.6363 -4.52251 13.5584 13.56C-4.51947 31.6379 -4.51947 61.0589 13.5584 79.1368ZM14.9839 14.9809C23.6302 6.3345 34.992 2.01132 46.3491 2.01132C57.7062 2.01132 69.068 6.3345 77.7097 14.9809C86.2286 23.4997 90.5508 34.6512 90.6764 45.8414H76.99V46.851H90.6763C90.5495 58.0396 86.2273 69.189 77.7097 77.7066C60.417 94.9993 32.2766 94.9993 14.9839 77.7066C6.46625 69.189 2.14403 58.0396 2.01724 46.851H15.9868V45.8414H2.01718C2.14277 34.6512 6.465 23.4997 14.9839 14.9809Z" fill="white"/>
<path d="M46.8683 27.1978C46.8917 27.2165 46.9198 27.2259 46.9431 27.2259L46.9478 27.2165H47.6115C47.6722 27.2165 47.7003 27.1885 47.7003 27.1277L47.6582 22.8513C47.6582 22.7905 47.6302 22.7625 47.5694 22.7672H46.9805C46.9198 22.7672 46.8917 22.7952 46.8917 22.856L46.9151 25.5948L46.873 25.4172L45.8588 22.8653C45.8355 22.8046 45.8027 22.7765 45.7607 22.7765L44.9802 22.7859C44.9194 22.7859 44.8914 22.8139 44.8914 22.8747L44.9334 27.1511C44.9334 27.2119 44.9615 27.2399 45.0222 27.2352H45.6111C45.6719 27.2352 45.6999 27.2072 45.6999 27.1464L45.6766 24.389L46.8216 27.1371C46.831 27.1605 46.845 27.1792 46.8683 27.1978Z" fill="#203F5B"/>
<path d="M39.1888 28.5766C39.2122 28.6327 39.2449 28.6514 39.287 28.6327H39.2917L39.8712 28.4083C39.9179 28.3896 39.9319 28.3522 39.9086 28.2962L39.1982 26.4641L39.5534 23.8608C39.5581 23.8328 39.5487 23.8094 39.516 23.8001C39.4833 23.7907 39.4552 23.7907 39.4319 23.8001L38.829 24.0337C38.8056 24.0431 38.7869 24.0618 38.7729 24.0852C38.7589 24.1085 38.7448 24.1366 38.7448 24.1599L38.5812 25.9406L37.2586 24.7348C37.2399 24.7208 37.2165 24.7068 37.1885 24.6974C37.1604 24.6881 37.1371 24.6881 37.1137 24.6974L36.5108 24.9311C36.4874 24.9404 36.4641 24.9591 36.45 24.9872C36.436 25.0152 36.4407 25.0386 36.4641 25.0573L38.4784 26.7445L39.1888 28.5766Z" fill="#203F5B"/>
<path d="M62.9263 48.8654C62.9263 48.9262 62.959 48.9589 63.0198 48.9589L63.0338 48.9402H65.8287C65.8894 48.9402 65.9221 48.9075 65.9221 48.8467V48.2205C65.9221 48.1597 65.8894 48.127 65.8287 48.127H63.7535V47.225C63.7535 47.2063 63.7582 47.1922 63.7582 47.1922L63.7769 47.1735L63.8891 47.0661C63.9031 47.052 63.9218 47.0474 63.9218 47.0474H65.3052C65.3125 47.0474 65.3197 47.0467 65.327 47.0458L65.3332 47.045C65.3426 47.0439 65.3519 47.0427 65.3613 47.0427C65.3987 47.0333 65.4361 47.0146 65.4734 46.9773L65.8567 46.6034C65.8941 46.566 65.9174 46.5333 65.9174 46.4959C65.9221 46.4631 65.9221 46.4304 65.9221 46.4304V44.8834C65.9221 44.8803 65.9216 44.8762 65.9209 44.8707C65.9195 44.8596 65.9174 44.8429 65.9174 44.818C65.9128 44.7806 65.8941 44.7479 65.8567 44.7105L65.4781 44.3319C65.4314 44.2805 65.3706 44.2572 65.3052 44.2572H63.5666C63.5292 44.2572 63.5012 44.2618 63.4778 44.2665C63.4544 44.2759 63.4264 44.2945 63.389 44.3319L63.0104 44.7105C62.959 44.7572 62.9356 44.818 62.9356 44.8834V45.5845C62.9356 45.6125 62.9497 45.6359 62.9637 45.6546C62.9777 45.6733 63.0011 45.6826 63.0291 45.6826H63.6554C63.6787 45.6826 63.7021 45.6733 63.7208 45.6546C63.7395 45.6359 63.7489 45.6125 63.7489 45.5845V45.0751H65.0014C65.0201 45.0751 65.0481 45.0938 65.0481 45.0938L65.1556 45.2059C65.1697 45.2246 65.1743 45.2527 65.1743 45.2527V46.0939C65.1743 46.1173 65.1556 46.15 65.1556 46.15L65.0622 46.2435H63.5619C63.5245 46.2435 63.4965 46.2482 63.4731 46.2528C63.4497 46.2622 63.4217 46.2809 63.3843 46.3183L63.0057 46.6968C62.9917 46.7155 62.9731 46.7388 62.9544 46.7621C62.9357 46.7902 62.9263 46.823 62.9263 46.8744V48.8654Z" fill="#203F5B"/>
<path fill-rule="evenodd" clip-rule="evenodd" d="M70.6425 48.9401C70.6706 48.9307 70.694 48.912 70.722 48.884L70.7267 48.8886L71.1052 48.5101C71.1426 48.4727 71.166 48.44 71.1707 48.4072C71.18 48.3792 71.18 48.3418 71.18 48.3418V47.0846C71.18 47.0472 71.1753 47.0192 71.1613 47.0005C71.1473 46.9818 71.1286 46.9584 71.1052 46.9304L70.9043 46.6686L71.1052 46.3976C71.1239 46.3742 71.1426 46.3508 71.1566 46.3228C71.1707 46.2947 71.18 46.262 71.18 46.22V44.8833C71.18 44.8775 71.1782 44.8664 71.1758 44.851L71.1732 44.8351L71.1707 44.8178C71.1613 44.7851 71.1426 44.7524 71.1052 44.715L70.7267 44.3365C70.6846 44.2991 70.6519 44.2757 70.6192 44.271C70.5911 44.2617 70.5537 44.2617 70.5537 44.2617H68.8665C68.8432 44.2617 68.8151 44.2663 68.7871 44.271C68.759 44.2804 68.731 44.2991 68.6936 44.3365L68.315 44.715C68.2963 44.7337 68.2776 44.7571 68.2636 44.7805C68.2496 44.8038 68.2402 44.8365 68.2402 44.8833V46.22C68.2402 46.248 68.2449 46.2714 68.2496 46.2901C68.2589 46.3088 68.2776 46.3415 68.315 46.3929L68.5113 46.664L68.315 46.9257C68.2917 46.9537 68.273 46.9771 68.2589 46.9911C68.2449 47.0098 68.2402 47.0285 68.2402 47.0565V48.3418C68.2402 48.3652 68.2449 48.3932 68.2496 48.4166C68.2589 48.44 68.2776 48.468 68.315 48.5054L68.6936 48.884C68.717 48.9167 68.745 48.9354 68.773 48.9447C68.7964 48.9587 68.8385 48.9587 68.8385 48.9587H70.5771C70.5882 48.9587 70.6051 48.9529 70.6256 48.9458L70.6425 48.9401ZM70.3574 46.0424C70.3574 46.0611 70.3387 46.0891 70.3387 46.0891H70.3341L70.2406 46.1826H69.161L69.0675 46.0891C69.0535 46.0751 69.0488 46.0424 69.0488 46.0424V45.2618C69.0488 45.2432 69.0675 45.2151 69.0675 45.2151L69.1843 45.1029C69.1984 45.0889 69.2264 45.0842 69.2264 45.0842H70.1798C70.1985 45.0842 70.2266 45.1029 70.2266 45.1029L70.3387 45.2151C70.3528 45.2291 70.3574 45.2572 70.3574 45.2572V46.0424ZM70.3574 48.0053C70.3574 48.024 70.3387 48.052 70.3387 48.052L70.2453 48.1455H69.1656L69.0722 48.052C69.0581 48.0427 69.0535 48.0053 69.0535 48.0053V47.2341C69.0535 47.2061 69.0722 47.1734 69.0722 47.1734L69.189 47.0612C69.1984 47.0472 69.2404 47.0425 69.2404 47.0425H70.1798C70.1985 47.0425 70.2266 47.0612 70.2266 47.0612L70.3387 47.1734C70.3528 47.1874 70.3574 47.2061 70.3574 47.2341V48.0053Z" fill="#203F5B"/>
<path d="M22.8553 48.9588C22.7945 48.9588 22.7618 48.9261 22.7618 48.8654V45.0797H22.3832C22.3832 45.0797 22.3412 45.0656 22.3225 45.0423C22.3038 45.0189 22.3084 44.9862 22.3271 44.9535L22.6449 44.3552C22.673 44.2992 22.7057 44.2664 22.7478 44.2664H23.4815C23.4815 44.2664 23.5236 44.2758 23.547 44.2945C23.5703 44.3132 23.575 44.3365 23.575 44.3599V48.8607C23.575 48.8887 23.5657 48.9121 23.547 48.9261C23.5283 48.9448 23.5049 48.9542 23.4815 48.9542H22.8553V48.9588Z" fill="#203F5B"/>
<path fill-rule="evenodd" clip-rule="evenodd" d="M28.3095 48.9491C28.3328 48.9444 28.3655 48.9257 28.4076 48.8837L28.4029 48.893L28.7815 48.5144C28.8329 48.463 28.8563 48.4023 28.8563 48.3322V44.8923C28.8563 44.8596 28.8516 44.8316 28.8423 44.8035C28.8329 44.7755 28.8142 44.7474 28.7815 44.7147L28.4029 44.3361C28.3609 44.2941 28.3188 44.2707 28.2767 44.2707H26.5428C26.5101 44.2707 26.4774 44.2754 26.454 44.2847C26.4306 44.2941 26.4026 44.3128 26.3699 44.3455L25.9913 44.7147C25.9539 44.7521 25.9352 44.7895 25.9259 44.8175C25.9165 44.8456 25.9165 44.883 25.9165 44.883V46.4814C25.9165 46.5141 25.9165 46.5421 25.9259 46.5655C25.9352 46.5889 25.9539 46.6169 25.9913 46.6543L26.3699 47.0375C26.4026 47.0656 26.4306 47.0889 26.4633 47.0936C26.4914 47.103 26.5428 47.103 26.5428 47.103H27.9262L28.0197 47.1964C28.0337 47.2198 28.0384 47.2432 28.0384 47.2432V47.9536C28.0384 47.9723 28.0197 48.0003 28.0197 48.0003L27.9075 48.1125C27.8982 48.1265 27.8608 48.1312 27.8608 48.1312H26.7297V47.6264C26.7297 47.5984 26.7204 47.575 26.7017 47.5563C26.6877 47.5376 26.6643 47.5283 26.6363 47.5283H26.01C25.9866 47.5283 25.9633 47.5376 25.9446 47.5563C25.9259 47.575 25.9165 47.5984 25.9165 47.6264V48.3275C25.9165 48.3649 25.9212 48.3976 25.9305 48.421C25.9399 48.4443 25.9586 48.4677 25.9913 48.5004L26.3699 48.879C26.4166 48.9304 26.4774 48.9538 26.5428 48.9538H28.23C28.258 48.9538 28.2861 48.9538 28.3095 48.9491ZM28.0431 46.1028C28.0431 46.1215 28.0244 46.1495 28.0244 46.1495H28.0197L27.9075 46.2617C27.8982 46.2757 27.8608 46.2804 27.8608 46.2804H26.9073C26.8886 46.2804 26.8653 46.2664 26.8653 46.2664L26.7531 46.1589C26.7391 46.1449 26.7344 46.1121 26.7344 46.1121V45.2195C26.7344 45.2008 26.7531 45.1727 26.7531 45.1727L26.8466 45.0793H27.9356L28.0244 45.1681C28.0384 45.1821 28.0431 45.2148 28.0431 45.2148V46.1028Z" fill="#203F5B"/>
<path fill-rule="evenodd" clip-rule="evenodd" d="M41.7399 69.4482C41.6838 69.4389 41.6558 69.4062 41.6651 69.3501L42.2961 65.1952C42.3054 65.1391 42.3381 65.111 42.3942 65.1204L44.3665 65.4195C44.39 65.4195 44.4135 65.4293 44.4342 65.438L44.446 65.4429C44.4693 65.4522 44.4927 65.4756 44.5207 65.5083L44.8152 65.9102C44.8432 65.9523 44.8573 65.985 44.8573 66.0177V66.0832L44.6142 67.6769C44.6049 67.7377 44.5722 67.7891 44.5207 67.8265L44.1188 68.1209C44.0954 68.1396 44.0721 68.1489 44.044 68.1583C44.016 68.1676 43.9833 68.1676 43.9459 68.1583L42.6326 67.9573L42.4036 69.4576C42.3942 69.5137 42.3615 69.5417 42.3054 69.5324L41.7352 69.4436L41.7399 69.4482ZM43.8991 67.2656C43.8991 67.2656 43.9132 67.2516 43.9132 67.2422L44.058 66.2888C44.058 66.2888 44.058 66.2654 44.0487 66.2561L43.9552 66.1346C43.9552 66.1346 43.9365 66.1206 43.9272 66.1159L42.941 65.9663L42.7494 67.2142L43.7356 67.3638C43.7356 67.3638 43.7636 67.3638 43.773 67.3591L43.8945 67.2703L43.8991 67.2656Z" fill="#203F5B"/>
<path d="M45.7456 69.864C45.7643 69.878 45.8063 69.8873 45.8063 69.8873L45.8017 69.8826L46.3765 69.892C46.3999 69.8967 46.4186 69.8873 46.4373 69.8733C46.456 69.8593 46.4653 69.8219 46.4653 69.8219L46.4747 69.1442C46.4794 69.0881 46.4513 69.0554 46.3906 69.0554L45.8157 69.0461C45.7596 69.0414 45.7269 69.0741 45.7269 69.1302L45.7175 69.8079C45.7175 69.8312 45.7269 69.8499 45.7456 69.864Z" fill="#203F5B"/>
<path d="M49.2505 69.7567C49.1944 69.766 49.1571 69.7427 49.1477 69.6866L48.47 65.5363C48.4607 65.4802 48.484 65.4429 48.5448 65.4335L50.7929 65.069C50.8489 65.0596 50.8863 65.083 50.8957 65.1437L50.9891 65.7139C50.9891 65.7139 50.9891 65.7513 50.9798 65.7747C50.9705 65.7981 50.9564 65.8121 50.9377 65.8121L49.33 66.0738L49.4982 67.1207L50.7601 66.9151C50.8162 66.9057 50.8536 66.9291 50.863 66.9899L50.9564 67.5601C50.9658 67.6161 50.9424 67.6535 50.8863 67.6629L49.6244 67.8685L49.9002 69.5697C49.9095 69.6258 49.8862 69.6632 49.8254 69.6726L49.2552 69.766L49.2505 69.7567Z" fill="#203F5B"/>
<path d="M42.2597 27.7025C42.2597 27.7025 42.2176 27.7025 42.1943 27.6931C42.1709 27.6838 42.1615 27.6651 42.1569 27.6464L42.0167 26.9734C42.0026 26.9173 42.026 26.8799 42.0868 26.8659L42.6616 26.7444C42.7177 26.7304 42.7551 26.7537 42.7691 26.8145L42.9093 27.4875C42.9093 27.4875 42.9093 27.5296 42.8906 27.5483C42.8766 27.5669 42.8579 27.5763 42.8346 27.581L42.2597 27.7025Z" fill="#203F5B"/>
<path d="M49.7984 27.5155C49.7984 27.5155 49.761 27.5014 49.7423 27.4827C49.7283 27.464 49.719 27.4453 49.7236 27.422L49.8545 26.7443C49.8639 26.6835 49.9012 26.6602 49.9573 26.6742L50.5322 26.7864C50.593 26.7957 50.6163 26.8331 50.6023 26.8892L50.4714 27.5669C50.4714 27.5669 50.4527 27.6043 50.434 27.6136C50.4154 27.6229 50.392 27.6276 50.3686 27.6229L49.7937 27.5155H49.7984Z" fill="#203F5B"/>
<path d="M52.4854 28.0579C52.4667 28.114 52.4807 28.1514 52.5368 28.1747L52.5321 28.1701L54.6867 29.0207C54.7428 29.0394 54.7801 29.0253 54.8035 28.9693L55.0185 28.4224C55.0372 28.3664 55.0232 28.329 54.9671 28.3056L53.4388 27.7027L53.8361 26.6978L55.0419 27.1746C55.0606 27.1839 55.0839 27.1839 55.1073 27.1746C55.1307 27.1699 55.1494 27.1512 55.1587 27.1278L55.3737 26.581C55.3877 26.5576 55.3831 26.5343 55.3737 26.5109C55.3644 26.4875 55.327 26.4642 55.327 26.4642L54.1212 25.9874L54.5184 24.9826L56.0467 25.5855C56.0701 25.5995 56.0935 25.5948 56.1168 25.5855C56.1402 25.5762 56.1636 25.5388 56.1636 25.5388L56.3786 24.9919C56.3972 24.9359 56.3832 24.8985 56.3271 24.8751L54.1726 24.0245C54.1165 24.0058 54.0791 24.0198 54.0557 24.0759L52.4854 28.0579Z" fill="#203F5B"/>
</svg>
